<svg id="Øsm" xmlns="http://www.w3.org/2000/svg" xmlns:xlink="http://www.w3.org/1999/xlink" width="399.16mm" height="19.75mm" viewBox="0 0 1131.48 56"><defs><style>.cls-1{fill:#fff;}.cls-2{fill:#776b5f;}</style><symbol id="New_Symbol_17" data-name="New Symbol 17" viewBox="0 0 111.11 117.28"><polygon class="cls-1" points="1.23 0 109.87 0 111.11 1.24 111.11 9.26 64.81 55.56 64.81 61.73 111.11 108.03 111.11 116.05 109.87 117.28 1.23 117.28 0 116.05 0 1.24 1.23 0"/></symbol></defs><title>header-dark</title><rect class="cls-2" width="1131.48" height="56"/><g id="Kalklandet_navn_hvid"><path class="cls-1" d="M55.94,42.14l.16.19v2.8h.37l2.18-3h1.09l.17.15v.51l-2,2.89v.14l2.1,2.7v.54l-.18.17H58.7l-2.05-2.57H56.1v2.42l-.16.15H54.79l-.15-.15v-6.8l.15-.15Z"/><path class="cls-1" d="M74.34,42.14l.17.19v2.8h.36l2.19-3h1.08l.17.15v.51l-2,2.89v.14l2.1,2.7v.54l-.18.17H77.11l-2-2.57h-.55v2.42l-.17.15H73.2L73,49.09v-6.8l.16-.15Z"/><path class="cls-1" d="M66.82,49.24H65.38L65,47.58H62.43l-.38,1.66H60.6V49l1.68-6.86h2.86L66.82,49Zm-2.12-3-.63-2.94h-.7l-.65,2.94Z"/><path class="cls-1" d="M72.1,48v1.11l-.21.15H67.8l-.16-.15V42.3l.17-.16H69l.16.15v5.55h2.76Z"/><path class="cls-1" d="M87.75,42.13H85.69l-1.61,7v.08H85l.46-2H88l.46,2h.88v-.09q-.81-3.49-1.61-7Zm-2.14,4.33.8-3.59H87l.8,3.59Z"/><path class="cls-1" d="M99,42.13H96.51l-.1.07v7l.08.08H99a1.79,1.79,0,0,0,1.87-1.9V44A1.8,1.8,0,0,0,99,42.13Zm1.1,5.17a1,1,0,0,1-1,1.12H97.24V43H99a1,1,0,0,1,1,1.12Z"/><path class="cls-1" d="M95,42.13h-.72l-.07.07V48l-.17-.5-2.6-5.33h-1l-.08.07v6.95l.08.08h.73l.07-.08V43.43l.15.46,2.58,5.33h1l.07-.09V42.2Z"/><path class="cls-1" d="M109.8,49.23l.08-.08V43h1.74l.1-.1V42.2l-.07-.07h-4.32l-.07.07v.74l.07.07H109v6.22Z"/><path class="cls-1" d="M83.52,48.37H80.41V42.2s0-.07,0-.07h-.8l-.07.07v6.95l.07.08h4l.07-.08v-.7Z"/><polygon class="cls-1" points="102.1 45.12 102.1 46.12 105.97 46.12 106.03 46.03 106.03 45.2 105.97 45.12 102.1 45.12"/><polygon class="cls-1" points="102.1 48.27 102.1 49.13 102.2 49.23 106.19 49.23 106.26 49.15 106.26 48.36 106.18 48.27 102.1 48.27"/><polygon class="cls-1" points="106.17 42.12 102.15 42.12 102.07 42.19 102.07 43.12 102.86 43.12 102.86 43.12 106.16 43.12 106.24 43.04 106.24 42.19 106.17 42.12"/></g><path class="cls-1" d="M62.67,10.28V17.2a3.83,3.83,0,0,1-4.06,3.85,5.27,5.27,0,0,1-1.46-.24l-.4,1.1h-1l-.2-.18v-.84l.26-.84a3.87,3.87,0,0,1-1.22-2.86V10.26A3.75,3.75,0,0,1,58.63,6.5a6.9,6.9,0,0,1,1.52.2c.1-.34.32-.82.44-1.22h1l.14.14v.92l-.28.86A4.27,4.27,0,0,1,62.67,10.28Zm-4.7,3,1.68-5.08a5.58,5.58,0,0,0-1-.14,2.23,2.23,0,0,0-2.5,2.26v7a1.6,1.6,0,0,0,.22,1Zm3.08-2.94A3.58,3.58,0,0,0,60.89,9c-.54,1.64-1.3,4.22-3.28,10.33a3.9,3.9,0,0,0,1,.12,2.19,2.19,0,0,0,2.42-2.28Z"/><path class="cls-1" d="M73.39,17.23c0,2.56-1.18,3.86-4.48,3.86s-4.3-1.34-4.36-3.52l.16-.14H66l.14.14c.08,1.42,1,1.94,2.76,1.94,2.34,0,2.94-.58,2.94-2.32a2,2,0,0,0-1.22-2.05c-1.24-.64-2.46-1.2-4-1.94A3.1,3.1,0,0,1,64.79,10c0-2.1,1-3.6,4.14-3.6s4.2.86,4.28,3.4l-.16.16h-1.3l-.16-.18c0-1.44-.52-1.84-2.66-1.84s-2.58.74-2.58,1.94a2,2,0,0,0,1.24,2c1,.48,2.58,1.16,3.6,1.64C72.67,14.25,73.39,15,73.39,17.23Z"/><path class="cls-1" d="M78.41,20.83V8.16H74.89L74.75,8V6.72l.14-.16h8.66l.14.14V8l-.2.2H80V20.67l-.16.16Z"/><path class="cls-1" d="M93.73,17.23c0,2.56-1.18,3.86-4.48,3.86s-4.3-1.34-4.36-3.52l.16-.14h1.28l.14.14c.08,1.42,1,1.94,2.76,1.94,2.34,0,2.94-.58,2.94-2.32A2,2,0,0,0,91,15.14c-1.24-.64-2.46-1.2-4-1.94A3.1,3.1,0,0,1,85.13,10c0-2.1,1-3.6,4.14-3.6s4.2.86,4.28,3.4l-.16.16h-1.3l-.16-.18c0-1.44-.52-1.84-2.66-1.84s-2.58.74-2.58,1.94a2,2,0,0,0,1.24,2c1,.48,2.58,1.16,3.6,1.64C93,14.25,93.73,15,93.73,17.23Z"/><path class="cls-1" d="M103.51,6.72V17.39c0,2.4-.94,3.62-4,3.62s-3.92-.8-3.94-3.48l.12-.14h1.34l.12.12c0,1.76.42,1.92,2.38,1.92,1,0,2.38-.18,2.38-1.9V8.14H96.83A1.29,1.29,0,0,1,96.67,8V6.72l.16-.16h6.54Z"/><path class="cls-1" d="M113.39,19.25h5.94l.18.18v1.22l-.16.16h-7.54v-4h-3.92c-.14.54-.34,1.26-.48,1.84s-.4,1.44-.58,2.16h-1.52v-.3l3.66-14h10.4l.14.16V8l-.14.14h-6v4.36h5.48l.16.18v1.26l-.14.14h-5.5ZM111.81,8.12h-1.66l-1.86,7.1h3.5Z"/><path class="cls-1" d="M130.11,19.43v1.24l-.14.16H122l-.14-.16v-14l.14-.16h1.34a.7.7,0,0,0,.1.16V19.27H130Z"/><path class="cls-1" d="M140.25,19.43v1.24l-.14.16h-7.94l-.14-.16v-14l.14-.16h1.34a.7.7,0,0,0,.1.16V19.27h6.5Z"/><path class="cls-1" d="M152.09,20.65v.18h-1.6l-.9-4h-5.54l-.88,4h-1.6v-.16l3.24-14.11h4C149.83,11.26,151,16,152.09,20.65Zm-2.92-5.39-1.54-7.2H146l-1.58,7.2Z"/><path class="cls-1" d="M163.33,6.72v14l-.14.18-1.76,0-5.36-10.71-.3-.92V20.69l-.14.16h-1.28l-.16-.16V6.74l.16-.16h1.7l5.38,10.71.34,1V6.72l.16-.14h1.26Z"/><path class="cls-1" d="M175.09,10.34V17a3.6,3.6,0,0,1-3.76,3.83h-4.76s-.14-.14-.16-.16V6.7l.2-.16h4.64A3.61,3.61,0,0,1,175.09,10.34Zm-1.56.06a2,2,0,0,0-2.12-2.28H168V19.27h3.44a2,2,0,0,0,2.1-2.28Z"/><path class="cls-1" d="M186.23,17.23c0,2.56-1.18,3.86-4.48,3.86s-4.3-1.34-4.36-3.52l.16-.14h1.28l.14.14c.08,1.42,1,1.94,2.76,1.94,2.34,0,2.94-.58,2.94-2.32a2,2,0,0,0-1.22-2.05c-1.24-.64-2.46-1.2-4-1.94A3.1,3.1,0,0,1,177.63,10c0-2.1,1-3.6,4.14-3.6s4.2.86,4.28,3.4l-.16.16h-1.3l-.16-.18c0-1.44-.52-1.84-2.66-1.84s-2.58.74-2.58,1.94a2,2,0,0,0,1.24,2c1,.48,2.58,1.16,3.6,1.64C185.51,14.25,186.23,15,186.23,17.23Z"/><path class="cls-1" d="M66,24V37.41l-.42.42H64.07l-.4-.4V28.1l-.44,1.3c-.62,1.26-1.4,2.89-2,4.06H59.45l-2-4.16L57,28.1v9.33l-.32.4H55l-.34-.4V24l.4-.44h2.16l3.1,6.38,3.08-6.38h2.2Z"/><path class="cls-1" d="M77.65,24v9.89c0,2.8-1.4,4.16-4.62,4.16s-4.6-1.38-4.6-4.18V24l.4-.44h1.5l.42.44v9.85c0,1.4.86,1.94,2.28,1.94s2.28-.58,2.28-1.94V24l.4-.44h1.52Z"/><path class="cls-1" d="M86.37,30.18c1.58.72,2.32,1.5,2.32,3.85,0,2.7-1.22,4.06-4.64,4.06s-4.46-1.48-4.52-3.9l.42-.4h1.5l.42.4c.06,1.14.82,1.56,2.16,1.56,1.88,0,2.36-.44,2.36-1.76a1.45,1.45,0,0,0-.94-1.54l-3.68-1.82a3.31,3.31,0,0,1-2-3.43c0-2.22,1.06-3.78,4.32-3.78s4.36.94,4.44,3.76l-.4.42H86.53l-.38-.48c0-1.14-.36-1.42-2.08-1.42s-2,.52-2,1.4A1.54,1.54,0,0,0,83,28.64Z"/><path class="cls-1" d="M90.93,37.37V24l.42-.42h7.9l.38.42v1.5l-.4.42h-6v3.26h5.54l.4.4v1.52l-.4.4H93.27v4.05h6l.36.46v1.42l-.38.42H91.39Z"/><path class="cls-1" d="M110.89,24v9.89c0,2.8-1.4,4.16-4.62,4.16s-4.6-1.38-4.6-4.18V24l.4-.44h1.5L104,24v9.85c0,1.4.86,1.94,2.28,1.94s2.28-.58,2.28-1.94V24l.4-.44h1.52Z"/><path class="cls-1" d="M124.43,24V37.41l-.42.42h-1.52l-.4-.4V28.1l-.44,1.3c-.62,1.26-1.4,2.89-2,4.06h-1.82l-2-4.16-.4-1.2v9.33l-.32.4h-1.68l-.34-.4V24l.4-.44h2.16l3.1,6.38,3.08-6.38h2.2Z"/><use width="111.11" height="117.29" transform="translate(6.96 6.11) scale(0.37)" xlink:href="#New_Symbol_17"/></svg>
