<svg id="Øsm" xmlns="http://www.w3.org/2000/svg" xmlns:xlink="http://www.w3.org/1999/xlink" width="304.8mm" height="19.75mm" viewBox="0 0 864 56"><defs><style>.cls-1{fill:#b9b194;}.cls-2{fill:#fff;}</style></defs><title>header-seneste</title><image width="557" height="575" transform="translate(0 0) scale(0.09 0.1)" xlink:href="../../../../../../../Desktop/kalk.JPG"/><path class="cls-1" d="M0,0V56H863.32V0ZM48.26,9.55,31.05,26.76v2.29L48.26,46.26v3l-.46.46H7.42L7,49.24V6.56l.46-.46H47.8l.46.46Z"/><g id="Kalklandet_navn_hvid"><path class="cls-2" d="M57.2,35.22l.33.39v5.53h.71l4.32-5.92H64.7l.33.29v1l-4,5.71v.27l4.14,5.33v1.07l-.36.33H62.66l-4-5.07H57.53V49l-.33.29H54.94L54.63,49V35.51l.31-.29Z"/><path class="cls-2" d="M93.53,35.22l.33.39v5.53h.72l4.31-5.92H101l.33.29v1l-4,5.71v.27l4.14,5.33v1.07l-.35.33H99l-4-5.07H93.86V49l-.33.29H91.28L91,49V35.51l.31-.29Z"/><path class="cls-2" d="M78.69,49.24H75.84L75.1,46H70l-.74,3.28H66.4v-.47l3.32-13.55h5.65l3.32,13.53Zm-4.18-5.83-1.26-5.79H71.86l-1.27,5.79Z"/><path class="cls-2" d="M89.1,46.76V49l-.41.29H80.61L80.3,49V35.53l.33-.31H83l.33.29v11h5.44Z"/><path class="cls-2" d="M120,35.2h-4.07l-3.18,13.86v.16h1.76l.9-3.93h5.11l.9,3.93h1.76V49c-1.09-4.6-2.14-9.22-3.18-13.84Zm-4.24,8.55,1.58-7.08h1.24l1.58,7.08Z"/><path class="cls-2" d="M142.15,35.2H137.3l-.2.15V49.08s.14.16.16.16h5a3.54,3.54,0,0,0,3.7-3.76V38.93a3.54,3.54,0,0,0-3.77-3.73Zm2.16,10.21c0,1.85-1.2,2.21-2,2.21h-3.57V36.83h3.55a1.93,1.93,0,0,1,2,2.21Z"/><path class="cls-2" d="M134.25,35.2h-1.41l-.16.13V46.72l-.33-1L127.23,35.2h-2l-.16.15V49.06l.16.16h1.43l.13-.16V37.77l.3.91,5.1,10.52,2.07,0,.14-.18V35.33Z"/><path class="cls-2" d="M163.54,49.22l.16-.16V37h3.42l.19-.2V35.33l-.13-.13h-8.52l-.14.15v1.46l.14.14H162V49.22Z"/><path class="cls-2" d="M111.65,47.52h-6.14V35.35a1,1,0,0,1-.1-.15h-1.57l-.14.15V49.06l.14.16h7.81l.14-.16V47.68Z"/><polygon class="cls-2" points="148.33 41.12 148.33 43.08 155.96 43.08 156.1 42.91 156.1 41.26 155.96 41.12 148.33 41.12"/><polygon class="cls-2" points="148.33 47.33 148.33 49.02 148.52 49.22 156.41 49.22 156.55 49.06 156.55 47.51 156.39 47.33 148.33 47.33"/><polygon class="cls-2" points="156.36 35.19 148.43 35.19 148.27 35.33 148.27 37.16 149.83 37.16 149.83 37.16 156.34 37.16 156.5 37 156.5 35.33 156.36 35.19"/></g></svg>
