<svg id="Øsm" xmlns="http://www.w3.org/2000/svg" xmlns:xlink="http://www.w3.org/1999/xlink" width="356.93mm" height="19.75mm" viewBox="0 0 1011.77 56"><defs><style>.cls-1{fill:#b9b194;}.cls-2{fill:#fff;}</style></defs><title>header-seneste-lang</title><image width="557" height="575" transform="translate(0 0) scale(0.11 0.1)" xlink:href="../../../../../../../Desktop/kalk.JPG"/><path class="cls-1" d="M0,0V56H1011.77V0ZM56.56,9.55,36.39,26.76v2.29L56.56,46.26v3L56,49.7H8.7l-.54-.46V6.56L8.7,6.1H56l.54.46Z"/><g id="Kalklandet_navn_hvid"><path class="cls-2" d="M69.2,35.22l.33.39v5.53h.71l4.32-5.92H76.7l.33.29v1l-4,5.71v.27l4.14,5.33v1.07l-.36.33H74.66l-4-5.07H69.53V49l-.33.29H66.94L66.63,49V35.51l.31-.29Z"/><path class="cls-2" d="M105.53,35.22l.33.39v5.53h.72l4.31-5.92H113l.33.29v1l-4,5.71v.27l4.14,5.33v1.07l-.35.33H111l-4-5.07h-1.09V49l-.33.29h-2.25L103,49V35.51l.31-.29Z"/><path class="cls-2" d="M90.69,49.24H87.84L87.1,46H82l-.74,3.28H78.4v-.47l3.32-13.55h5.65l3.32,13.53Zm-4.18-5.83-1.26-5.79H83.86l-1.27,5.79Z"/><path class="cls-2" d="M101.1,46.76V49l-.41.29H92.61L92.3,49V35.53l.33-.31H95l.33.29v11h5.44Z"/><path class="cls-2" d="M132,35.2h-4.07l-3.18,13.86v.16h1.76l.9-3.93h5.11l.9,3.93h1.76V49c-1.09-4.6-2.14-9.22-3.18-13.84Zm-4.24,8.55,1.58-7.08h1.24l1.58,7.08Z"/><path class="cls-2" d="M154.15,35.2H149.3l-.2.15V49.08s.14.16.16.16h5a3.54,3.54,0,0,0,3.7-3.76V38.93a3.54,3.54,0,0,0-3.77-3.73Zm2.16,10.21c0,1.85-1.2,2.21-2,2.21h-3.57V36.83h3.55a1.93,1.93,0,0,1,2,2.21Z"/><path class="cls-2" d="M146.25,35.2h-1.41l-.16.13V46.72l-.33-1L139.23,35.2h-2l-.16.15V49.06l.16.16h1.43l.13-.16V37.77l.3.91,5.1,10.52,2.07,0,.14-.18V35.33Z"/><path class="cls-2" d="M175.54,49.22l.16-.16V37h3.42l.19-.2V35.33l-.13-.13h-8.52l-.14.15v1.46l.14.14H174V49.22Z"/><path class="cls-2" d="M123.65,47.52h-6.14V35.35a1,1,0,0,1-.1-.15h-1.57l-.14.15V49.06l.14.16h7.81l.14-.16V47.68Z"/><polygon class="cls-2" points="160.33 41.12 160.33 43.08 167.96 43.08 168.1 42.91 168.1 41.26 167.96 41.12 160.33 41.12"/><polygon class="cls-2" points="160.33 47.33 160.33 49.02 160.52 49.22 168.41 49.22 168.55 49.06 168.55 47.51 168.39 47.33 160.33 47.33"/><polygon class="cls-2" points="168.36 35.19 160.43 35.19 160.27 35.33 160.27 37.16 161.83 37.16 161.83 37.16 168.34 37.16 168.5 37 168.5 35.33 168.36 35.19"/></g></svg>
