<svg id="stevnsmuseum" xmlns="http://www.w3.org/2000/svg" width="261.47" height="275.6" viewBox="0 0 261.47 275.6"><defs><style>.cls-1{fill:#fff;}.cls-2{fill:#39728d;}</style></defs><title>koldkrigs-muse</title><rect class="cls-1" x="0.39" y="-0.05" width="260.55" height="275.6"/><path class="cls-2" d="M257.74,151.93l-3.29-3.29c.15.33.31.65.45,1l-.35,10.21c-2.68.56-6.76,1.27-12.25,1.86v-.57l.85-23.8-.83-.84-.86,24.66v.64c-3.43.35-7.39.67-11.87.86l.6-35c2.31,1,4.47,2.09,6.46,3.2L231,125.2a123.27,123.27,0,0,0-12.51-4.61c-20.87-6.64-29.78-8.08-49.26-11.32l-.39-.06-.22-.32-.09.27-1-.17-.27-.82-8.41-2.87-.43,2.17-1.71-.34a374.36,374.36,0,0,1-43-10.6,4.89,4.89,0,0,0,0-1.62v-.48a1.78,1.78,0,0,1,.89.27,2.23,2.23,0,0,0,1.6.24l.5-.13L116.5,94a1.93,1.93,0,0,0-.8-1.27V48.17l-2.12-1.82-.9-8.6-1.84-.65a25.26,25.26,0,0,0-5.54-2c-.57.87,0,3.57-.65,4.24l-.48.17V40c-1.27.3-.27,4-.56,5.76a4.49,4.49,0,0,0,.56-1.93V45.7l-1.36.9a4.49,4.49,0,0,0-.06-.9c-1.54,1.27-.84,4.73-.84,7,0,11-.36,24.43-.58,35.79-.29,1.63,1,.86,1.14,1.77.24,1.26-.4,1.12-.28,2.2.42,1,.32-2.43,1.13-2.2,1.26.19.73,3.25,2,3.53.55-.6-.26-2.81-.29-4-1.06.33-1.34-.54-2.26-.45v-.47l9.92,2.92a19,19,0,0,0-.24,2.38,8.56,8.56,0,0,1-.14,1.9l-2.66-.85L109,95h0l-4.83-1.61v.09c-6.33-2-10.34-3.44-10.46-3.49C78,85.5,36,63.06,35.58,62.86,23.5,55.71,12.36,53,2.69,54.63v2.71a32.13,32.13,0,0,1,5.63-.52h.37l-2.42,41-3.56-.21v2.64c1.06.81,2.15,1.63,3.29,2.47V124c-1.1-1.11-2.24-2.17-3.29-3.3v1.62c1.08,1.09,2.19,2.2,3.35,3.3l.67,8.16-4-7.78v2.15l3.09,6c-1-1.08-2.08-2.14-3.09-3.21v3.23a313.69,313.69,0,0,0,43.54,37v.14h.15c1.4.95,2.67,1.81,3.8,2.53a227.57,227.57,0,0,0,20.24,11.45l3.21,28.58,10.79,14.53,15.44,20.3H90.06v5.49h70.5v-5.49H152l20.92-36.79.39.93,2.79-6.42v-.12l1.36-2.43-.09-.14c39.79-3,74.46-15.89,78.76-20.72,5.15-5.79,5.83-17.18,1.84-30.45A3.57,3.57,0,0,0,257.74,151.93ZM105.53,39.05V38l.09,1ZM6.05,101.27c-.87-.63-1.72-1.26-2.53-1.88H6.18Zm249.66,50.37c.23.67.46,1.34.67,2,.55,1.87,1,3.67,1.37,5.44-.49.13-1.26.31-2.34.56Zm-1.26,9.56-.18,10.8c-2.77.68-6.6,1.6-11.28,2.53L242.32,163a117.93,117.93,0,0,0,12.19-1.76Zm-13,1.91.68,11.67c-3.58.76-7.59,1.59-12.06,2.42L229.55,164c4.57-.19,8.53-.52,12-.87Zm-23.41-40h.12q5.37,1.71,9.92,3.58l-10.23,5.92Zm-.21,11,11.46-6.65-.59,34.91c-1.52-.88-5.38-3.08-11.31-5.89Zm-1.37,30.11.91,15.18q-5.69.88-11.8,1.67V164c3.85.17,7.48.23,10.89.25Zm-10.89-1.59v-.28l.27-9.49c4.06,1.62,7.59,3.19,10.67,4.6l-.12,5.41c-3.38,0-7-.05-10.82-.22Zm12,18.06,2.08,7.92-13-3.33-.76-2.92c4-.49,7.94-1,11.69-1.65Zm-.19-16.45H218c3.87,0,7.46,0,10.76-.21l.56,13.33c-3.48.65-7.19,1.27-11.07,1.9Zm0-6.32c4.33,2.05,7.59,3.79,9.48,4.86-3,.1-6.17.15-9.57.15Zm-10.59-38.18c3.16.9,6.59,1.94,10.42,3.14l-.2,10.37-10.77,6.25ZM217,134.66l-.41,21.5c-3.07-1.4-6.62-3-10.67-4.59l.29-10.61Zm-14.32-16.07,3.25.9L205.32,140l-3.94,2.3Zm-1.26,25.14,4-2.32-.26,9.78c-1.27-.52-2.64-1-4-1.55Zm-1,18.61.61-11.39c1.4.52,2.74,1,4.06,1.56l-.23,9.83v.25l-4.39-.23Zm-1.11-44.66-1.41,26.57-3.89,2.25,1-29.91c1.42.4,2.86.74,4.33,1.12ZM180,167.14l1.84-4.65.19,20.88-4.48.26.19-3.09,1.44-8Zm-.62-12.44.39-10.52,2.05.56v10.4Zm2.67,30,.89,4.33-5.95,3.5.47-7.59Q179.74,184.85,182,184.7Zm.6-29.4V145c3.66,1,7.13,2.13,10.41,3.21v13.69q-5.07-.39-10.41-1v-3.79l.17-1.81Zm0-11.67.73-10.7,9.06,13.7q-4.59-1.53-9.74-3Zm.26,41c2.94-.19,5.85-.43,8.7-.68l-7.89,4.61Zm-.07-1.34-.19-21c3.61.38,7.11.71,10.46,1L194,182v.4c-3.59.36-7.37.68-11.19.93Zm14.75-33.61-.66,12.41h0c-1,0-2-.13-3-.21V148.43C195.16,148.88,196.36,149.3,197.54,149.69Zm-2.65-2.31,2.85-1.64-.13,2.53ZM194,163.25l3,.21.93,18.47-2.85.29-.08-.5Zm0-46.81-1,29.22-9.59-14.47,1.14-16.67c3.3.63,6.36,1.24,9.47,2Zm-20.48-3.79c3.7.62,7,1.26,10.21,1.77l-1.07,15.65-9.37-14.17ZM160.22,164l4.92-3.2,1.66,4,.17,3.64-1.63,8.64-4.14,4.38v.45L159,184h-.27l-1.07-19.62,2.34-1.67Zm-31,55.29,1.95-1.88L137,227l-1.66,2.53h-.55l.26-.39ZM113.69,215l-12.48-2.26L97,206.61l18.9,4Zm2.23,10.86-2.6,2.53-1.73-.28-6.22-9.24,8.11,1.47ZM93.45,200.38l-1.52-6.15a175.67,175.67,0,0,0,28.58,7.13l-2.13,4.25Zm-6.7-13.81-.89-14.87c2.61.91,5.29,1.77,8,2.6l.89,7.87L89,189.07Zm1.49,3.34-.14.17-1.16-.43-.08-1.27ZM75.58,118.06l8.18-4.79-.57,7.32v.47C80.47,120,78,119,75.58,118.06Zm7.59,4.37v2.11l-4.7-4c1.5.61,3.08,1.27,4.72,1.81Zm0,3.61L83,139.3l-.64-.2.26-.56-7.09-18.8Zm-1.55,12.43-.14.31c-2.27-.76-4.46-1.53-6.63-2.3v-16ZM80.93,140l-5.87,12.89-.22-14.73v-.28C76.83,138.55,78.87,139.25,80.93,140Zm.92.31c.38.13.77.26,1.16.41l.5,8-8.36,10.27-.07-3.79Zm1.76,10L84.87,170c-3.29-1.14-6.49-2.32-9.57-3.51l-.09-5.87Zm47-15.18.08,2.94-9.79,5.19v-1.15ZM121,140.53l.3-8.22c3.3.67,6.2,1.26,8.78,1.68Zm9.74-1.11.21,7.46.09,5.41c-3.4-.74-6.88-1.55-10.43-2.4l.24-5.23Zm28.51,18.34-1.78-.29.2-7,1.38,1.94-.2,2.9Zm.23,1.39.38,2.24-2.2,1.55-.22-4.07h0Zm.42,39.21.48,3.34h-2.53Zm-.35-8.43,1.55-1.51v.34L159.69,191Zm-5.31,9.75h-4.3l-.06-.38,8.85-8.61.22,1.44Zm-4.92,5.44-.39-1,2.44.09v.1Zm.86,1.06-.26.39-.11-.27Zm-20.57-23.11-6.83,13.73-1.59-15.27c2.78.53,5.59,1.05,8.43,1.48Zm-8.5-3-.26-16.19,10.29,17.71v.27C127.73,181.4,124.38,180.79,121.09,180.05Zm4.59,22.06q6.44.87,13.24,1.39l-12.11,11.74-4-6.74Zm8.86-49-2.53-.55-.31-10.12v-3.49l4.38-2.33v2.07Zm1.59-6.82.08,7.17-.81-.16ZM132,153.85l2.39.52-2.2,21L132,163.3Zm3.24.69,1,.22.67,19.47-4.3,5.8ZM137,175.91v1.61l-2.61,1.84Zm.1,3,.14,3.67c-1.52-.17-3-.36-4.49-.56Zm8.79-7.73-7.93,5.65-.08-2.16,7.59-10.32Zm-.32-31.84-5.06-3.67c1.05.19,2,.33,3,.49l2.13.36Zm11,19.23v.21l.25,4.64-10.12,7.18-.39-7.34,4.25-5.74c2.07.44,4.07.78,6,1.12Zm-5.06-2.24,5.31-7.19h0l-.22,8c-1.65-.14-3.36-.43-5.09-.75Zm-10,44.65h0l.37-.44-.41-.8-3.17-15.63c2.82.29,5.67.55,8.52.73l1.45,9.59Zm6,4.72-7.18,2.73,4.68-4.54,1.79.09Zm-7.7-9.16-6.22-12.27.32-.7c1.12.16,2.25.31,3.37.43Zm6.33-34.86-.27-4.94,3.46.64Zm.3,21.21.09.6q-4.28-.27-8.46-.74l-.15-4.4,7.95-5.67Zm-8.71-9.84L137.16,155l7.89,1.59.35,6.19Zm-4.71,12.37,7.45,14.73.17.79c-1.55-.11-3.08-.22-4.58-.36l-3.32-14.54Zm4.9,25.3L148,207l.66,1.55-4.57,7.25h-.3l-8.56-2.24Zm9.7-25.83q5,.31,10,.39l-8.54,8.4Zm-.2-1.34-.13-.86-.58-10.59L156.88,165l1,19c-3.47,0-6.95-.12-10.4-.38Zm9.67-46.22c-4-.81-7.23-1.38-10.63-1.94V135l.36-6.33,10-7.76.46,12.14Zm0,1.34-.21,7.7-.33,1.06-10.12-7.38.09-3.32c3.35.56,6.61,1.11,10.57,1.92ZM156,148.54l-5.71,7.7-4.33-.81.41-13.92Zm-10.3-13.65v.39l-2.08-.33-4-.66,6.43-5Zm-.18,6-.4,14.35c-2.53-.5-5.25-1-8-1.59L137,138.3l.25-2.21.48-.32.35-.29Zm-9.41-7.19-4.2-.73,5.41-19.46Zm-.08,1.34v.18l-4.39,2.31v-3.26Zm-3.79,52.47,2.95,13c-2.84-.26-5.6-.59-8.33-1Zm-1.08-7.88-10.41-17.81-.16-10.54q5.33,1.29,10.43,2.42l.09,5.31ZM122,198.31l-.27.54c-2.53-.41-5.06-.85-7.59-1.36l-2-18.11c2.65.65,5.34,1.27,8.08,1.88Zm-2.13-53.13-.24,4.51-5.47-1.27H114Zm-4.84,1.14,5-3.53v1Zm-1,3.37,5.6,1.38.17,9.1-6.14-10.57Zm5.8,12.55.31,17.64c-2.8-.63-5.52-1.26-8.2-1.92l-.39-27.83.3-.75.39-.2h0Zm.16-21-8.45,6.1.13-17,8.72,1.79Zm-6.82,56c-2.3-.48-4.61-1-6.87-1.57h.1l-2.59-18.48q3.57,1,7.32,1.91ZM89.66,142.82l2.17.67,1.81,29.19v.22c-2.71-.85-5.38-1.71-8-2.61l-1.26-21Zm-5.36,4.86L83.89,141l4.66,1.52Zm6.25-6,1.38-1.7-.07,2.07Zm10.77,4.57c3,.84,6.11,1.69,9.26,2.53h0V150L103,169Zm1.26,29.23c-.36-.11-.74-.21-1.12-.3l.91-2.24.16,2.19Zm-1.26-30.59.2-3.61,6.6,5.47c-2.23-.59-4.55-1.22-6.74-1.86Zm0-16.83-.08-.17h.08Zm0,.35v.14l-.58,10.54-4.76-4Zm-6.33,6-2-1.64.42-7c2.23.66,4.59,1.27,7.11,1.95Zm-.73.91-1.32,1.76.13-2.85Zm.82.7,5.51,4.55-.13,4c-2.65-.76-5.23-1.52-7.77-2.29l.18-3.49Zm-2.46,7.74,7.59,2.24v.07l2.1,24.82L100.64,175c-2-.6-4.06-1.18-6-1.79l-.08-.68Zm7.12,32.32-4.2,5.21-.82-6.72c1.72.52,3.42,1,5.13,1.51Zm1.15.33c.62.19,1.26.35,1.83.52l2.61,18.57q-4.33-1.11-8.55-2.42l-1.19-10.36Zm2.62-.63.06-.81-.29-3.9,7.46-18.59.36,25.3-7.53-2Zm7-28.48-9-7.45.63-11.11.13-.58c2.65.66,5.46,1.27,8.45,1.95Zm-9-20.68c-2.87-.72-5.53-1.46-8-2.19L95,106.74l2.73-1.61,5.69,2.74ZM92.7,124.2c-3.11-1-6-1.9-8.64-2.86v-.7l.61-7.94L94,107.21Zm-.08,1.34-.31,6.56L84,125.21v-2.53c2.65,1,5.49,1.92,8.57,2.86Zm-.43,8L92,138.21l-2.61,3.17c-1.87-.6-3.8-1.19-5.57-1.81L84,126.73Zm-7.32,37.82.86,14.12-9.88-11.14-.55-6.47q4.68,1.8,9.62,3.49Zm1,15.91.11,2c-3-1.19-6.09-2.53-9.13-3.8l-.76-9.27Zm9-3.65,1.06,9.16c-1.62-.52-3.21-1.05-4.82-1.62l-.12-.53-.46.27-.91-1Zm-3.79,22.47,1.26,5.06-7.59-1.35Zm28.63,5.22h0l4,6.83-4.92,4.89L116.59,218Zm6.42,10.87,4.43,7.5h-6.91l-2-.25-.9-2.05Zm7.08-5.15,9.28,1.18-4.33,6.9ZM146,220.3l2.24,3.72-3.61,5.62h-3.8l-.38-.61Zm1.27-1.92.24-.4,4,1-2,3.12Zm1-1.56,2.32-3.68,1.85,4.47-.14.21Zm3.56-5.67,4.12-6.57,2.53,3.65-4.75,7.44Zm6.46-6.83h2.65l-1.27,2Zm2.32-7.17.28-.44v.12l1.07,4.46-.61.35h-.08Zm-1.37-46.36-1.44-2v-2l2.16-6.93Zm0-11.65L158,143.37l.14-4.49C158.4,139,158.8,139,159.23,139.14Zm-2.69-29.34,1.4.24-1.11,5.73.14,3.63L147.06,127l1.09-18.83c2.78.63,5.59,1.17,8.35,1.64ZM147.29,108l-1.14,19.73L138.09,134l-1-.75,6.47-26.06Zm-4.57-1-5.06,20.6,2-21.33c.95.25,2,.5,3.06.73Zm-4.88-1.14-.24,3.32L131.53,131l1.45-26.3c1.6.41,3.2.81,4.82,1.2Zm-14.42-3.79c2.79.78,5.7,1.57,8.66,2.32l-1.49,26.8-3.5-8.86-4.48-9.17Zm2.92,21,3.8,9.54c-2.6-.48-5.47-1-8.77-1.67v-.15l1.18-15.71Zm-3.92-21.26-.32,4.6L116.22,100c2,.59,4.07,1.2,6.24,1.8Zm-9.36,9,7.73.9h0l.83,1.69-1.16,17.27h0c-2.62-.53-5.5-1.11-8.69-1.79Zm-8.86-2.6,4.43,2.08,3.52.41-1.27,18c-3-.63-5.75-1.27-8.37-1.94Zm-.3-12-.2,2.9-6-.77-1.27,5.94-1.39.82.91-11.51c1.9.6,4.64,1.52,8,2.61ZM93.35,92.76l1.8.63-1,12.34-9.35,5.49,1.62-20.9C89.05,91.32,91.4,92.18,93.35,92.76ZM85.58,90l-1.69,21.76-9,5.26,1.91-30.8c3.08,1.39,6,2.67,8.75,3.75Zm-19-8.6c3.17,1.53,6.32,3,9.41,4.4l-1.83,29.6-7.9-28Zm-2.21,73-.31-20.64,1.75.68,2.53,29.23-.27-.11ZM66.8,163l-2.44-1L64.29,157ZM64,132.37l.49-12.23L65.62,133Zm2.62,2.42,4.81,1.82-2.65,23.7Zm-.13-1.43-1.6-18.68h.14c2.74,1.27,5.49,2.53,8.43,3.8l-1.87,16.8C69.88,134.65,68.15,134,66.52,133.36ZM74,122v14.18l-1.51-.57Zm-.24-4.72c-2.94-1.26-5.69-2.53-8.43-3.79l-.5-.23h0l1.26-23.07ZM65.73,81l-.21,3.79-1.27-4.47Zm-9-4.45L61.5,79l-5.06,2.53ZM63,79.66l.22.1,2.14,7.81L64,112.88c-3.05-1.4-6-2.75-9.23-4.07v-.59l1.55-25.3Zm.42,75.09.1,6.83c-3.46-1.53-6.82-3.1-10-4.71l.18-26.37Zm-9-25q4.19,1.82,8.68,3.6l.27,18.83ZM63.18,132q-4.57-1.83-8.86-3.67l-.27-.25,9.81-13.33Zm-9.36-5.39.85-16.45c2.93,1.27,5.74,2.53,8.55,3.8ZM52.08,74.25l3.8,1.9-.38,5.69-4.15,2Zm-.82,11,4.15-2-1.5,24.78v.35c-1.37-.54-2.77-1.09-4.23-1.62Zm2.53,24.5L53,127.11l-4.54-4,1.11-15c1.47.57,2.9,1.09,4.28,1.67Zm-2.88,18.39-2.65.79V127Zm-2.65-2.53V124.6l2.53,2.23C50,126.42,49.18,126,48.26,125.65Zm4.29,3.49-4.29,13.69V130.4ZM35,65.36c.08.06,2,1.09,5.06,2.71L38.56,90,28.18,95.05l2.53-32C32.07,63.74,33.53,64.51,35,65.36ZM25.82,114.1q-4.65-2.67-8.73-5.29l.46-8.46c1.26.18,2.53.37,4,.61l4.92,4.33Zm.07,27.83Zm0-1.52c-1.17-.82-2.29-1.65-3.39-2.45l3.37-1ZM37,113l-9.53-8.4.19-2.53c3.09.62,6.4,1.38,9.93,2.33Zm.32,8.72c2.42,1.22,4.95,2.46,7.59,3.7V130l-7.94,2.31Zm-.43-7.25-.32,5.41h0q-5.18-2.67-9.8-5.3v-.31l.65-8.21Zm-10-13.92c-1.76-.35-3.46-.65-5.06-.92l-.17-.14,5.48-2.66Zm-3.13.78c1,.16,2,.35,3,.55l-.15,2Zm2.92,35.34L36,133.94l-.48,12.84q-4.68-2.92-8.86-5.81Zm8.86,11.63.48,3.63-9.17-9.07v-.33c2.73,2,5.63,3.88,8.73,5.82ZM36,132.56l-9.32,2.74V116c3.06,1.74,6.32,3.51,9.75,5.27Zm.82,1.12,8-2.35v21c-3-1.65-5.81-3.32-8.49-5h0Zm8,20v.12L43.19,159l.77.6,1-3.31.38,4.94L37,153l-.5-4c2.63,1.61,5.4,3.23,8.29,4.83Zm0-29.68c-2.62-1.27-5.13-2.53-7.59-3.8v-.34l.34-4.79,7.37,6.5ZM37.65,103.1c-3.53-.94-6.86-1.7-9.92-2.33l.33-4.3,10.41-5.06ZM29.82,62.62,27.29,95.51l-6.73,3.22-2.86-.15,2.38-40a59.79,59.79,0,0,1,9.74,4ZM9.58,56.89a40.84,40.84,0,0,1,9.63,1.55l-2.37,40-9.71-.63ZM7.05,99.47c2.37.1,5.63.32,9.7.84l-.47,8c-3.41-2.19-6.52-4.34-9.36-6.39Zm-.16,3.9c2.83,2,5.93,4.17,9.33,6.33l.17,23.54c-2.64-2.11-5-4.17-7.15-6.16-.81-.75-1.61-1.48-2.38-2.21h0ZM7,126.6c.54.53,1.11,1.05,1.71,1.58q3.48,3.21,7.72,6.67l.12,1.78-8.86-1Zm1.74,10.53,7.9.86.43,6.93c-2.86-2.58-5.66-5.19-8.35-7.82Zm8.3-26.86c2.73,1.73,5.66,3.5,8.76,5.29v20L21.14,137c-1.35-1-2.64-2-3.87-3Zm.31,25.3c.55.43,1.11.88,1.7,1.33l-1.63-.17ZM18,145.69l-.47-7.64,3.18.35,5.4,5.33,1.16,10c-3.09-2.56-6.2-5.28-9.3-8Zm10.24,8.78-1.15-9.79,9.23,9.09,1,7.95c-2.93-2.2-6-4.65-9.15-7.23Zm10.12,8-1.06-7.71,8.25,8.14L46,168c-2.34-1.51-4.92-3.39-7.65-5.46Zm6.82-42.24-7.41-6.47.62-9.08c1,.25,2,.51,3,.8,1.69.5,3.29,1,4.8,1.5Zm1.1-14.62c-1.53-.49-3.08-1-4.75-1.47l-3-.84L39.4,91l8.28-4Zm-6.84-16L40.94,68.5c2.28,1.26,5.06,2.68,8.31,4.3l-.53-.09-1,12.85Zm8.86,64v-7.68l4.52-14.67-.16,25.3-4.35-2.27Zm.18,2.14c1.38.74,2.81,1.47,4.27,2.2l.78,11.26-4.37-4.23Zm2.42,15.61-1.18-.76-.32-3.88,4.27,4.2.13,2.23Zm3.8,2.35-.13-1.87,4.55,4.48c-1.5-.85-3-1.72-4.46-2.56Zm8.21,4.75-8.45-8.34-.83-11.72q4.79,2.4,10,4.71L65,174.46l-2,4Zm1,.54,1.27-2.68.42,3.6Zm.69-15.47,2.84,1.26,1,2.53-.14.18.09.11L65.62,173Zm2,16.9-.66-5.57,2.81-5.75v.06l1.48,13.12c-1.24-.61-2.45-1.22-3.67-1.86Zm3.31-16.09h0a4.08,4.08,0,0,1-.54-.22l3-27.17c.56.22,1.1.42,1.66.61v.62l.25,16.61Zm4.42-7.38V160l-3.24,4Zm-2.53,7.92,2.6-3.19v4.49c-.88-.34-1.77-.68-2.64-1Zm.19,1.71,2.53,1,.49,5.72-2.6-3Zm.64,5.68,2.53,2.88.86,9.95-2.08-1Zm4.06,36.05L74.22,187q6.23,2.93,12.51,5.32l2.8,9L77.3,208.41Zm10.12,16-7.51-10.12,14.52,2.63,2.3,9.3-8.85-1.15ZM91.84,231l5.62.75,2.43,9.85Zm8.06-4.35-2.24-9.08,2,.36,6.43,9.55Zm1.39,5.6,7.59,1-4.54,11.49Zm5.56,16.45,4.46-11.25,2.28,11.25Zm7.37-14.79,5.61.73.84,1.89-4.06,9.17Zm5.25,14.79,3.3-7.45,3.33,7.45Zm7,0,1.48-1.58,1,1.58Zm-1-13.56,15.84-.08-8.17,12.74Zm21.91,13.56H137.4l7.37-11.49,9.06.09Zm-.85-14.17,4.2-6.56,4,6.64Zm9.69-1.38L151.91,226l3.7-5.76,7.83.08Zm1.14-15.51,3.67-5.7,4,5.78Zm8.78-1.92L162.2,210l2.45-3.8,5.57-.54.69,1.6Zm6-94.08-.72-.73-2.29-7.16.14-1.8h.29l2.95,4.43Zm.48-6.91-1.67-2.53c.62.12,1.27.19,1.82.3Zm.33,7.73.33-4.85,9.4,14.16-.74,10.66-3.36-14.2Zm3.53,78.64.44-7.05,6.33-3.71,2,10c-2.88.34-5.84.6-8.81.81Zm9.73-.88L184,189.81l10.37-6,2.33,15c-3.45.56-7,1-10.57,1.43Zm11.38-1.53-2.31-14.91,3,.76L201,198.1Zm2.85-34.95,4.33.23v17.23c-1.13.14-2.27.29-3.42.42Zm1.13,19.19c1.16-.13,2.31-.28,3.46-.42l.65,2.53-3.87-1Zm2.93,14.57-2.42-12,4,1,2.61,10.12c-1.3.36-2.74.62-4.14.89Zm5.06-1L207,186.73l13,3.35,1,3.79c-3.59.93-7.43,1.8-11.42,2.62Zm12.33-2.84-.86-3.31,6.73,1.72c-1.86.56-3.82,1.1-5.84,1.62Zm8.37-2.31-9.61-2.53-2.18-8.31c3.87-.62,7.59-1.27,11-1.89l2.34,12.18Zm2.1-.65.3-.14-2.32-12c4.47-.83,8.53-1.67,12.14-2.42l2.34,10.29c-3.47,1.37-7.66,2.86-12.44,4.33Zm22.77-9.89c-1.14,1.27-4.48,3.14-9.53,5.2l-2.28-10.12c4.56-1,8.29-1.87,11.05-2.53l1.54,6.44a12.42,12.42,0,0,1-.75,1Zm1.44-2.06-1.34-5.59,3.32-.86a18.16,18.16,0,0,1-1.94,6.51Zm2.14-7.87c-.71.19-1.89.52-3.47.91l.2-10.69c1.27-.28,2.14-.5,2.65-.63a40.16,40.16,0,0,1,.65,10.44Z"/><rect class="cls-2" x="49.07" y="204.78" width="211.48" height="70.81"/><path class="cls-1" d="M104.8,246.9v1.74l-.2.22H93.49l-.2-.22V229.12l.2-.22h1.88a1.27,1.27,0,0,0,.13.22v17.56h9.1Z"/><path class="cls-1" d="M117.57,246.65h8.31l.26.25v1.71l-.23.22H115.36v-5.6h-5.49c-.2.76-.48,1.77-.67,2.58-.25,1-.56,2-.82,3h-2.12v-.42l5.12-19.54h14.56l.2.22v1.8l-.2.19h-8.37v6.11h7.67l.22.25v1.76l-.19.2h-7.7Zm-2.21-15.57H113l-2.6,9.94h4.9Z"/><path class="cls-1" d="M141,243.82c0,3.59-1.65,5.41-6.27,5.41-4.42,0-6-1.88-6.1-4.93l.22-.2h1.79l.2.2c.11,2,1.43,2.71,3.86,2.71,3.28,0,4.12-.81,4.12-3.24a2.74,2.74,0,0,0-1.71-2.86c-1.73-.9-3.44-1.68-5.54-2.72-1.51-.75-2.61-1.82-2.61-4.5,0-2.94,1.43-5,5.8-5s5.88,1.2,6,4.76l-.22.22h-1.82l-.23-.25c0-2-.72-2.58-3.72-2.58s-3.61,1-3.61,2.72a2.75,2.75,0,0,0,1.73,2.85c1.46.68,3.62,1.63,5,2.3C140,239.65,141,240.66,141,243.82Z"/><path class="cls-1" d="M165.39,229.09v19.55l-.22.22h-1.82l-.2-.19V232.51l-.42,1.29c-1.31,2.71-2.88,5.85-4.17,8.59h-1.9l-4.15-8.59-.47-1.35v16.22l-.23.19h-1.76l-.25-.22V229.12l.19-.22h2.58l5,10.36,5-10.36h2.61Z"/><path class="cls-1" d="M168.39,248.58V229.09l.22-.19H179.9l.19.19v1.8l-.22.22H170.6v6.1h8.65l.2.2v1.79l-.2.23H170.6v7.25h9.27l.22.25v1.71l-.19.22H168.67Z"/><path class="cls-1" d="M196,248.86h-1.9l-5-8.65-2-.06-1.23-.72v9.21l-.26.22h-1.7l-.26-.22V229.09l.2-.19h6.58c4.17,0,5.15,2.38,5.15,5v1.54c0,1.15-.47,4.7-4,4.7l4.59,7.9v.62Zm-5.85-10.58c2.35-.06,3.19-.7,3.19-2.86V234c0-2.21-.89-2.88-3-2.88h-4.51v7.17Z"/><path class="cls-1" d="M198.6,248.58V229.09l.22-.19h11.29l.19.19v1.8l-.22.22h-9.27v6.1h8.65l.2.2v1.79l-.2.23h-8.65v7.25h9.27l.22.25v1.71l-.19.22H198.88Z"/><path class="cls-2" d="M18.19,25.15v.42L24.83,34v.9l-.2.22H23c-2.44-2.82-4.48-5.6-6.78-8.45H14.35v8.23l-.19.22H12.31l-.2-.22V15.38l.23-.23h1.82l.19.23V24.5h1.54l6.53-9.35h1.65a1.13,1.13,0,0,0,.17.23v.84Z"/><path class="cls-2" d="M34,35.51c-4.45,0-6.21-2.58-6.21-5.29V19.88c0-2.49,1.68-5.26,6.24-5.26,4.37,0,6.22,2.6,6.22,5.29V30.27C40.2,32.93,38.43,35.51,34,35.51Zm4-15.57c0-2.55-1.77-3.25-4-3.25-2.49,0-4.06.78-4.06,3.25V30.22c0,2.57,2.66,3.21,3.87,3.21h.39c1.15,0,3.78-.53,3.78-3.19Z"/><path class="cls-2" d="M54.09,33.15v1.74l-.2.22H42.77l-.19-.22V15.38l.19-.23h1.88a1,1,0,0,0,.14.23V32.93h9.1Z"/><path class="cls-2" d="M68.93,20.44v9.33c0,1.73-.87,5.34-5.27,5.34H57s-.2-.19-.23-.22V15.35l.28-.23h6.5A5.06,5.06,0,0,1,68.93,20.44Zm-2.19.09c0-2.66-1.79-3.19-3-3.19H59V32.93H63.8c1.18,0,2.94-.53,2.94-3.19Z"/><path class="cls-2" d="M77.41,25.15v.42L84.05,34v.9l-.2.22H82.17c-2.44-2.82-4.48-5.6-6.78-8.45H73.57v8.23l-.19.22H71.53l-.2-.22V15.38l.23-.23h1.82l.19.23V24.5h1.54l6.53-9.35h1.65a1.13,1.13,0,0,0,.17.23v.84Z"/><path class="cls-2" d="M99.87,35.11H98l-5-8.65-2-.05-1.23-.73v9.21l-.25.22H87.77l-.25-.22V15.35l.19-.2h6.58c4.17,0,5.16,2.38,5.16,5V21.7c0,1.15-.48,4.71-4,4.71l4.59,7.89v.62ZM94,24.53c2.36-.06,3.2-.7,3.2-2.86V20.25c0-2.22-.9-2.89-3-2.89H89.73v7.17Z"/><path class="cls-2" d="M105.49,34.89l-.19.22h-1.8l-.22-.22V15.38l.22-.23h1.8l.19.23Z"/><path class="cls-2" d="M119.24,26.07l1.12-1.31h1.15c0,2.88,0,9.1,0,10.13l-.25.25-2.05,0v-1l-3.81,1.18c-5.15,0-6.05-2.44-6.05-5.69v-9.4c0-1.74.82-5.27,6.11-5.27,4.84,0,6,1.65,6.05,4.76l-.23.25h-1.76l-.25-.25c-.17-2.24-1.21-2.57-3.81-2.57-2,0-3.92.36-3.92,3.13v9.35c0,2.78,1.12,3.45,3.92,3.45l3.75-.09Z"/><path class="cls-2" d="M136.74,30.07c0,3.59-1.65,5.41-6.27,5.41-4.43,0-6-1.88-6.1-4.93l.22-.19h1.79l.2.19c.11,2,1.42,2.72,3.86,2.72,3.28,0,4.12-.82,4.12-3.25a2.74,2.74,0,0,0-1.71-2.86c-1.74-.89-3.45-1.68-5.55-2.71-1.51-.76-2.6-1.82-2.6-4.51,0-2.94,1.43-5,5.8-5s5.88,1.2,6,4.76l-.23.22h-1.82l-.22-.25c-.05-2-.73-2.58-3.72-2.58s-3.62,1-3.62,2.72a2.77,2.77,0,0,0,1.74,2.86c1.46.67,3.61,1.62,5,2.29C135.73,25.9,136.74,26.91,136.74,30.07Z"/><path class="cls-2" d="M155,15.35V34.89l-.23.22h-1.82l-.19-.19V18.76l-.42,1.29c-1.32,2.72-2.89,5.85-4.17,8.6h-1.91l-4.14-8.6-.48-1.34V34.92l-.22.19h-1.77l-.25-.22V15.38l.2-.23h2.57l5,10.36,5-10.36h2.6Z"/><path class="cls-2" d="M170.4,15.35V29.82c0,3.75-1.88,5.57-6.22,5.57s-6.24-1.84-6.24-5.59V15.38l.19-.23h1.79l.23.23V29.8c0,2.57,1.51,3.55,4,3.55s4-1.06,4-3.55V15.38l.2-.23h1.79Z"/><path class="cls-2" d="M185.26,30.07c0,3.59-1.65,5.41-6.27,5.41-4.42,0-6-1.88-6.1-4.93l.22-.19h1.79l.2.19c.11,2,1.43,2.72,3.86,2.72,3.28,0,4.12-.82,4.12-3.25a2.74,2.74,0,0,0-1.71-2.86c-1.73-.89-3.44-1.68-5.54-2.71-1.51-.76-2.61-1.82-2.61-4.51,0-2.94,1.43-5,5.8-5s5.88,1.2,6,4.76l-.22.22H183l-.23-.25c-.05-2-.72-2.58-3.72-2.58s-3.61,1-3.61,2.72a2.77,2.77,0,0,0,1.73,2.86c1.46.67,3.62,1.62,5,2.29C184.26,25.9,185.26,26.91,185.26,30.07Z"/><path class="cls-2" d="M187.9,34.84V15.35l.22-.2H199.4l.2.2v1.79l-.22.22h-9.27v6.11h8.65l.2.19v1.79l-.2.23h-8.65v7.25h9.27l.22.25v1.71l-.2.22H188.18Z"/><path class="cls-2" d="M214.83,15.35V29.82c0,3.75-1.87,5.57-6.21,5.57s-6.25-1.84-6.25-5.59V15.38l.2-.23h1.79l.22.23V29.8c0,2.57,1.52,3.55,4,3.55s4-1.06,4-3.55V15.38l.2-.23h1.79Z"/><path class="cls-2" d="M233.26,15.35V34.89l-.23.22h-1.82l-.19-.19V18.76l-.42,1.29c-1.32,2.72-2.89,5.85-4.18,8.6h-1.9l-4.14-8.6-.48-1.34V34.92l-.22.19h-1.77l-.25-.22V15.38l.2-.23h2.57l5,10.36,5-10.36h2.6Z"/><path class="cls-2" d="M146.46,53.47c0,2.31-1.07,3.48-4,3.48s-3.87-1.21-3.92-3.17l.14-.13h1.15l.13.13c.07,1.28.92,1.75,2.49,1.75,2.1,0,2.64-.53,2.64-2.09A1.76,1.76,0,0,0,144,51.6c-1.11-.57-2.21-1.08-3.56-1.74a2.81,2.81,0,0,1-1.68-2.9c0-1.89.92-3.24,3.73-3.24s3.78.77,3.85,3.06l-.14.14H145l-.14-.16c0-1.3-.47-1.66-2.4-1.66s-2.32.67-2.32,1.75a1.76,1.76,0,0,0,1.12,1.83c.93.44,2.32,1,3.24,1.48C145.81,50.79,146.46,51.44,146.46,53.47Z"/><path class="cls-2" d="M150.7,56.72V45.32h-3.17l-.12-.13V44l.12-.14h7.8l.13.12v1.14l-.18.18h-3.14V56.57l-.14.15Z"/><path class="cls-2" d="M156.75,56.53V44l.14-.12h7.26l.13.12v1.16l-.15.14h-6v3.92h5.57l.12.13V50.5l-.12.15h-5.57v4.66h6l.15.16v1.1l-.13.15h-7.22Z"/><path class="cls-2" d="M175,44v.49l-3.38,12.21h-3c-1.09-4-2.28-8.14-3.38-12.1V44l.16-.16h1.06c1,3.56,2.24,7.67,3.23,11.21v.22h.79v-.22l3.26-11.21h1.1Z"/><path class="cls-2" d="M184.4,44V56.57l-.13.16h-1.58l-4.83-9.64-.27-.83V56.59l-.12.14h-1.15l-.15-.14V44l.15-.14h1.53l4.84,9.63.31.92V44l.14-.12h1.13Z"/><path class="cls-2" d="M194.14,53.47c0,2.31-1.06,3.48-4,3.48s-3.88-1.21-3.93-3.17l.14-.13h1.16l.12.13c.07,1.28.92,1.75,2.49,1.75,2.1,0,2.64-.53,2.64-2.09a1.77,1.77,0,0,0-1.09-1.84c-1.12-.57-2.22-1.08-3.57-1.74A2.8,2.8,0,0,1,186.4,47c0-1.89.91-3.24,3.72-3.24s3.78.77,3.86,3.06l-.15.14h-1.17l-.14-.16c0-1.3-.47-1.66-2.4-1.66s-2.32.67-2.32,1.75a1.76,1.76,0,0,0,1.12,1.83c.93.44,2.32,1,3.24,1.48C193.49,50.79,194.14,51.44,194.14,53.47Z"/><path class="cls-2" d="M195.86,56.72V44l.15-.12h7.25l.13.12v1.16l-.14.14h-6v3.92h5.56l.13.13V50.5l-.13.15h-5.56v5.92l-.15.15Z"/><path class="cls-2" d="M209.11,57c-2.86,0-4-1.66-4-3.41V46.92c0-1.6,1.08-3.39,4-3.39s4,1.68,4,3.41V53.6C213.13,55.31,212,57,209.11,57Zm2.58-10c0-1.64-1.14-2.09-2.56-2.09-1.6,0-2.61.5-2.61,2.09v6.6c0,1.66,1.71,2.07,2.48,2.07h.26c.74,0,2.43-.34,2.43-2.05Z"/><path class="cls-2" d="M223.23,56.72H222l-3.2-5.57-1.3,0-.79-.47v5.92l-.17.15h-1.09l-.16-.15V44l.12-.12h4.23c2.69,0,3.32,1.53,3.32,3.22v1c0,.74-.31,3-2.56,3l2.95,5.07v.4Zm-3.77-6.81c1.51,0,2-.45,2-1.84v-.92c0-1.42-.57-1.85-1.9-1.85h-2.9v4.61Z"/><path class="cls-2" d="M227.44,56.72V45.32h-3.17l-.13-.13V44l.13-.14h7.79l.13.12v1.14l-.18.18h-3.13V56.57l-.15.15Z"/></svg>
