<svg id="stevnsmuseum" xmlns="http://www.w3.org/2000/svg" width="261.47" height="275.6" viewBox="0 0 261.47 275.6"><defs><style>.cls-1{fill:#fff;}.cls-2{fill:#89b62e;}</style></defs><title>stevns-natur</title><rect class="cls-1" x="0.46" y="-0.05" width="260.55" height="275.6"/><rect class="cls-2" x="49.07" y="204.78" width="211.48" height="70.81"/><path class="cls-1" d="M104.8,246.9v1.74l-.2.22H93.49l-.2-.22V229.12l.2-.22h1.88a1.27,1.27,0,0,0,.13.22v17.56h9.1Z"/><path class="cls-1" d="M117.57,246.65h8.31l.26.25v1.71l-.23.22H115.36v-5.6h-5.49c-.2.76-.48,1.77-.67,2.58-.25,1-.56,2-.82,3h-2.12v-.42l5.12-19.54h14.56l.2.22v1.8l-.2.19h-8.37v6.11h7.67l.22.25v1.76l-.19.2h-7.7Zm-2.21-15.57H113l-2.6,9.94h4.9Z"/><path class="cls-1" d="M141,243.82c0,3.59-1.65,5.41-6.27,5.41-4.42,0-6-1.88-6.1-4.93l.22-.2h1.79l.2.2c.11,2,1.43,2.71,3.86,2.71,3.28,0,4.12-.81,4.12-3.24a2.74,2.74,0,0,0-1.71-2.86c-1.73-.9-3.44-1.68-5.54-2.72-1.51-.75-2.61-1.82-2.61-4.5,0-2.94,1.43-5,5.8-5s5.88,1.2,6,4.76l-.22.22h-1.82l-.23-.25c0-2-.72-2.58-3.72-2.58s-3.61,1-3.61,2.72a2.75,2.75,0,0,0,1.73,2.85c1.46.68,3.62,1.63,5,2.3C140,239.65,141,240.66,141,243.82Z"/><path class="cls-1" d="M165.39,229.09v19.55l-.22.22h-1.82l-.2-.19V232.51l-.42,1.29c-1.31,2.71-2.88,5.85-4.17,8.59h-1.9l-4.15-8.59-.47-1.35v16.22l-.23.19h-1.76l-.25-.22V229.12l.19-.22h2.58l5,10.36,5-10.36h2.61Z"/><path class="cls-1" d="M168.39,248.58V229.09l.22-.19H179.9l.19.19v1.8l-.22.22H170.6v6.1h8.65l.2.2v1.79l-.2.23H170.6v7.25h9.27l.22.25v1.71l-.19.22H168.67Z"/><path class="cls-1" d="M196,248.86h-1.9l-5-8.65-2-.06-1.23-.72v9.21l-.26.22h-1.7l-.26-.22V229.09l.2-.19h6.58c4.17,0,5.15,2.38,5.15,5v1.54c0,1.15-.47,4.7-4,4.7l4.59,7.9v.62Zm-5.85-10.58c2.35-.06,3.19-.7,3.19-2.86V234c0-2.21-.89-2.88-3-2.88h-4.51v7.17Z"/><path class="cls-1" d="M198.6,248.58V229.09l.22-.19h11.29l.19.19v1.8l-.22.22h-9.27v6.1h8.65l.2.2v1.79l-.2.23h-8.65v7.25h9.27l.22.25v1.71l-.19.22H198.88Z"/><path class="cls-2" d="M62.68,26c0,3.59-1.66,5.41-6.28,5.41-4.42,0-6-1.88-6.1-4.93l.22-.2h1.8l.19.2c.11,2,1.43,2.72,3.87,2.72,3.27,0,4.11-.82,4.11-3.25a2.74,2.74,0,0,0-1.71-2.86c-1.73-.89-3.44-1.68-5.54-2.71-1.51-.76-2.6-1.82-2.6-4.51,0-2.94,1.42-5,5.79-5s5.88,1.2,6,4.76l-.22.22H60.38l-.22-.25c-.06-2-.73-2.58-3.73-2.58s-3.61,1-3.61,2.72a2.76,2.76,0,0,0,1.74,2.86c1.45.67,3.61,1.62,5,2.29C61.67,21.81,62.68,22.82,62.68,26Z"/><path class="cls-2" d="M69.28,31V13.3H64.36l-.2-.2V11.28l.2-.22H76.48l.2.2V13l-.28.28H71.52V30.8L71.3,31Z"/><path class="cls-2" d="M78.69,30.74V11.26l.23-.2H90.2l.2.2v1.79l-.23.22H80.9v6.11h8.66l.19.19v1.79l-.19.23H80.9v7.25h9.27l.23.25V30.8l-.2.22H79Z"/><path class="cls-2" d="M107.14,11.28V12l-5.27,19H97.25C95.55,24.86,93.7,18.37,92,12.21v-.9l.25-.25h1.65c1.57,5.54,3.48,11.93,5,17.44v.34h1.23V28.5l5.07-17.44h1.7Z"/><path class="cls-2" d="M121.7,11.28V30.8l-.2.25L119,31l-7.51-15-.42-1.28V30.83l-.19.22h-1.79l-.23-.22V11.31l.23-.22h2.38l7.53,15,.47,1.43V11.28l.23-.19h1.76Z"/><path class="cls-2" d="M136.85,26c0,3.59-1.66,5.41-6.28,5.41-4.42,0-6-1.88-6.1-4.93l.22-.2h1.8l.19.2c.11,2,1.43,2.72,3.87,2.72,3.27,0,4.11-.82,4.11-3.25A2.74,2.74,0,0,0,133,23.07c-1.73-.89-3.44-1.68-5.54-2.71-1.51-.76-2.6-1.82-2.6-4.51,0-2.94,1.42-5,5.79-5s5.88,1.2,6,4.76l-.22.22h-1.82l-.22-.25c-.06-2-.73-2.58-3.73-2.58S127,14,127,15.68a2.76,2.76,0,0,0,1.74,2.86c1.45.67,3.61,1.62,5,2.29C135.84,21.81,136.85,22.82,136.85,26Z"/><path class="cls-2" d="M63.46,44.88V64.4l-.2.25-2.46,0-7.5-15-.42-1.28V64.43l-.2.22H50.89l-.23-.22V44.91l.23-.22h2.38l7.53,15,.48,1.43V44.88l.22-.19h1.76Z"/><path class="cls-2" d="M80.26,64.37v.25H78L76.76,59H69l-1.23,5.6H65.53V64.4l4.54-19.74h5.54C77.09,51.24,78.72,57.82,80.26,64.37Zm-4.09-7.53L74,46.76H71.69L69.48,56.84Z"/><path class="cls-2" d="M85.61,64.62V46.9H80.68l-.2-.2V44.88l.2-.22H92.8l.2.2v1.76l-.28.28H87.85V64.4l-.23.22Z"/><path class="cls-2" d="M107.45,44.86V59.33c0,3.75-1.88,5.57-6.22,5.57S95,63.06,95,59.3V44.88l.19-.22H97l.23.22V59.3c0,2.58,1.51,3.56,4,3.56s4-1.06,4-3.56V44.88l.2-.22h1.79Z"/><path class="cls-2" d="M123.41,64.62H121.5l-5-8.65-2,0-1.23-.73V64.4l-.25.22h-1.71l-.25-.22V44.86l.19-.2h6.58c4.18,0,5.16,2.38,5.16,5v1.54c0,1.15-.48,4.71-4,4.71l4.59,7.89v.62ZM117.55,54c2.36-.06,3.2-.7,3.2-2.86V49.76c0-2.22-.9-2.89-3-2.89h-4.51V54Z"/><path class="cls-2" d="M138.13,59.47c-.11,3.11-1.79,5.41-6.1,5.41S126,62.44,126,59.19V50.06c0-2.38,1.35-5.54,6.11-5.54,4.45,0,6,2.32,6.07,5.15l-.14.14h-1.93l-.17-.14c-.11-2-1-2.94-3.83-3h-.37c-2.07,0-3.55,1-3.55,3.44v9.07c0,2.66,1.73,3.47,3.55,3.47h.37c2.74,0,3.69-.92,3.83-3.16l.23-.28h1.79Z"/><path class="cls-2" d="M140.77,64.34V44.86l.22-.2h11.28l.2.2v1.79l-.22.22H143V53h8.65l.2.19V55l-.2.23H143v7.25h9.27l.22.25V64.4l-.2.22H141.05Z"/><path class="cls-2" d="M168.09,44.88V64.4l-.19.25-2.47,0-7.5-15-.42-1.28V64.43l-.2.22h-1.79l-.22-.22V44.91l.22-.22h2.38l7.53,15,.48,1.43V44.88l.22-.19h1.77Z"/><path class="cls-2" d="M175.18,64.62V46.9h-4.93l-.2-.2V44.88l.2-.22h12.12l.2.2v1.76l-.28.28h-4.87V64.4l-.23.22Z"/><path class="cls-2" d="M184.59,64.34V44.86l.22-.2h11.28l.2.2v1.79l-.22.22H186.8V53h8.65l.2.19V55l-.2.23H186.8v7.25h9.27l.22.25V64.4l-.2.22H184.87Z"/><path class="cls-2" d="M212.22,64.62h-1.9l-5-8.65-2,0-1.23-.73V64.4l-.26.22h-1.71l-.25-.22V44.86l.2-.2h6.58c4.17,0,5.15,2.38,5.15,5v1.54c0,1.15-.47,4.71-4,4.71l4.59,7.89v.62ZM206.37,54c2.35-.06,3.19-.7,3.19-2.86V49.76c0-2.22-.89-2.89-3-2.89h-4.5V54Z"/><polygon class="cls-2" points="179.5 89.9 138.86 130.53 138.86 135.96 179.5 176.59 179.5 183.63 178.41 184.72 83.06 184.72 81.97 183.63 81.97 82.85 83.06 81.77 178.41 81.77 179.5 82.85 179.5 89.9"/></svg>
