<svg id="stevnsmuseum" xmlns="http://www.w3.org/2000/svg" xmlns:xlink="http://www.w3.org/1999/xlink" width="261.47" height="275.6" viewBox="0 0 261.47 275.6"><defs><style>.cls-1{fill:#fff;}.cls-2,.cls-3{fill:#008db8;}.cls-2{fill-rule:evenodd;}</style><symbol id="New_Symbol_36" data-name="New Symbol 36" viewBox="0 0 79.31 70.73"><polygon class="cls-2" points="29.7 29.5 31.34 28.54 32.38 27.22 33.72 26.19 35.57 25.74 34.16 25.52 34.31 25 31.19 25.52 30.82 26.11 30.74 25.89 29.7 29.5 29.7 29.5"/><polygon class="cls-2" points="38.4 18.29 38.7 17.7 38.25 18.15 38.4 18.29 38.4 18.29"/><polygon class="cls-2" points="11.19 17.56 11.27 16.82 12.68 14.61 10.97 16.45 10.23 16.6 10.3 17.26 11.19 17.56 11.19 17.56"/><path class="cls-2" d="M4.9,70.73l10.32-6.52,2.22-3.36-.23-2.73.75-1.7L17.36,55l2-1.92-.44-1.3L20,47.87l-.11-3.14.22-1.25,1.05.51.44-.07.3.22,2.52.07,4.24-.88.67-1.47.52.29L33,41.53V40.42l1.56-.52.37-.88h1l.59-1-.07-.82.37-1,.45.45,1-1.78-.08-1.4,2-.73,1.19.36,6.76-1,3-1.55,1.26.67,2.38-1.33h1.86l.89-.89,2.15-1.32-2-3.76-.23-2.29-1-1.48,2.3-1.69H78.6l.71-.82-11.49-.1-8.08.18s6.43-.51,7.11-.77l.17-.77L56.4,15.5l-3,.6-6.9-.37.67.29,5.27.45-1.44,0-.45.44h-1.9L47,16.45l-9,.07.67-.14L20.56,13.94l-3.42-2.06L1.89.22,0,0,.05,3.47,4.36,8.19l1.48.88h2.9l3.2,1.48,1.63,1.77-.74,2.07,4.53,2,.38-.23,6.39.67.44-.44,8.18.73,1,.37,24.53.37L57,19l-1.71-.22-.89.37-1.64-.08.45.3h-2.1l.29-.88-1.11.36-5,.3.15-.74h-2.9l-2.9,1-7.43,1.25-1.12.89-2.9,1,.08-.15-.89.45-11.82,2-1.24-.15-4-1.25L4.9,22.59l1.24-.86-4,.44L.06,21.28v8.45l.52-1.41,12.11-.51,2.75.29,1-.81L20,26l.74.44L22.6,26h.67l1.93-.74,3.27-.66,4-2.44,1.19-.07.74-.44L36,21.17,38.79,21l-1.14.78.38.37-2.16,1.54L36,25.45,34.51,31l-2.06-.25-3,2.06-.6-.15-3.19,2.88-.15.88-2.9,1.7-3.27,1.33L16.14,34l.3,2.88-1.34.52,2.9,2.5-3.34,1.92L16.1,44l-.67,1.11-2.9,2.36-1.93,1L9,51,4.51,54.8.94,56l-.89.52L.14,69.94ZM17.07,36.07l.81,1.7Zm20.51-7.82.59-.66L38,24.19l1.63-.59L43.87,21l1.86-.22L45.8,20h9.1l.67.59.74,1.4.37,1.92L55.42,26H52.59l-.74.69L51.26,26l-2.61.67-1-1,.15-1,.52-.81L49.43,23l-4.9.37-2.08.52.81,1.33,1.19-.15.45.74-.52.66-.22-.37L42,26.41l.59,1.18L41,28l-.6-.14-3.27,1.92ZM44.64,20l-.82.15Zm13.9-2.14Zm4.53-1.18-2.6.59-4.68-.66.22.29-2.45-.29,3.19-.45.23-.36,9.81.51-.52.52ZM23.24,15,27,16Z"/><polygon class="cls-2" points="41.15 16.45 38.62 16.08 41.15 16.45 41.15 16.45"/></symbol><symbol id="New_Symbol_27" data-name="New Symbol 27" viewBox="0 0 111.27 117.28"><polygon class="cls-1" points="1.39 117.28 110.03 117.28 111.27 116.04 111.27 108.02 64.97 61.72 64.97 55.55 111.27 9.25 111.27 1.23 110.03 0 1.39 0 0.15 1.23 0.15 116.04 1.39 117.28"/><use width="79.31" height="70.73" transform="translate(0 23.97)" xlink:href="#New_Symbol_36"/></symbol></defs><title>stevns-klint</title><rect class="cls-1" width="260.55" height="275.6"/><use width="111.27" height="117.28" transform="matrix(2.35, 0, 0, -2.35, 0, 275.6)" xlink:href="#New_Symbol_27"/><rect class="cls-3" x="49.07" y="204.78" width="211.48" height="70.81"/><path class="cls-1" d="M104.8,246.9v1.74l-.2.22H93.49l-.2-.22V229.12l.2-.22h1.87a1.35,1.35,0,0,0,.14.22v17.56h9.1Z"/><path class="cls-1" d="M117.57,246.65h8.31l.26.25v1.71l-.23.22H115.36v-5.6h-5.49c-.2.76-.48,1.77-.67,2.58-.26,1-.56,2-.82,3h-2.12v-.42l5.12-19.54h14.56l.2.22v1.8l-.2.19h-8.37v6.11h7.67l.22.25v1.76l-.19.2h-7.7Zm-2.21-15.57H113l-2.6,9.94h4.9Z"/><path class="cls-1" d="M141,243.82c0,3.59-1.65,5.41-6.27,5.41-4.42,0-6-1.88-6.1-4.93l.22-.2h1.79l.2.2c.11,2,1.43,2.71,3.86,2.71,3.28,0,4.12-.81,4.12-3.24a2.74,2.74,0,0,0-1.71-2.86c-1.74-.9-3.44-1.68-5.54-2.72-1.51-.75-2.61-1.82-2.61-4.5,0-2.94,1.43-5,5.8-5s5.88,1.2,6,4.76l-.22.22h-1.82l-.23-.25c0-2-.72-2.58-3.72-2.58s-3.61,1-3.61,2.72a2.75,2.75,0,0,0,1.73,2.85c1.46.68,3.62,1.63,5,2.3C140,239.65,141,240.66,141,243.82Z"/><path class="cls-1" d="M165.39,229.09v19.55l-.22.22h-1.82l-.2-.19V232.51l-.42,1.29c-1.32,2.71-2.88,5.85-4.17,8.59h-1.91l-4.14-8.59-.48-1.35v16.22l-.22.19h-1.76l-.26-.22V229.12l.2-.22h2.58l5,10.36,5-10.36h2.6Z"/><path class="cls-1" d="M168.39,248.58V229.09l.22-.19h11.28l.2.19v1.8l-.22.22H170.6v6.1h8.65l.2.2v1.79l-.2.23H170.6v7.25h9.27l.22.25v1.71l-.2.22H168.67Z"/><path class="cls-1" d="M196,248.86h-1.9l-5-8.65-2-.06-1.23-.72v9.21l-.26.22h-1.7l-.26-.22V229.09l.2-.19h6.58c4.17,0,5.15,2.38,5.15,5v1.54c0,1.15-.47,4.7-4,4.7l4.59,7.9v.62Zm-5.85-10.58c2.35-.06,3.19-.7,3.19-2.86V234c0-2.21-.89-2.88-3-2.88h-4.5v7.17Z"/><path class="cls-1" d="M198.6,248.58V229.09l.22-.19h11.29l.19.19v1.8l-.22.22h-9.27v6.1h8.65l.2.2v1.79l-.2.23h-8.65v7.25h9.27l.22.25v1.71l-.19.22H198.88Z"/><path class="cls-3" d="M24.6,30.07c0,3.59-1.65,5.41-6.27,5.41-4.42,0-6-1.88-6.1-4.93l.22-.19h1.79l.2.19c.11,2,1.43,2.72,3.86,2.72,3.28,0,4.12-.82,4.12-3.25a2.74,2.74,0,0,0-1.71-2.86c-1.74-.89-3.44-1.68-5.54-2.71-1.52-.76-2.61-1.82-2.61-4.51,0-2.94,1.43-5,5.8-5s5.88,1.2,6,4.76l-.22.22H22.31l-.23-.25c0-2-.73-2.58-3.72-2.58s-3.61,1-3.61,2.72a2.77,2.77,0,0,0,1.73,2.86c1.46.67,3.61,1.62,5,2.29C23.59,25.9,24.6,26.91,24.6,30.07Z"/><path class="cls-3" d="M31.21,35.11V17.39H26.28l-.19-.19V15.38l.19-.23H38.41l.19.2v1.76l-.28.28H33.45v17.5l-.22.22Z"/><path class="cls-3" d="M40.62,34.84V15.35l.22-.2H52.13l.19.2v1.79l-.22.22H42.83v6.11h8.65l.2.19v1.79l-.2.23H42.83v7.25H52.1l.22.25v1.71l-.19.22H40.9Z"/><path class="cls-3" d="M69.07,15.38v.75l-5.27,19H59.18C57.47,29,55.62,22.46,53.92,16.3v-.9l.25-.25h1.65c1.57,5.55,3.47,11.93,5,17.44v.34h1.24v-.34l5.06-17.44h1.71Z"/><path class="cls-3" d="M83.62,15.38V34.89l-.19.25-2.46,0-7.51-15L73,18.85V34.92l-.19.22h-1.8l-.22-.22V15.4l.22-.22h2.38l7.54,15,.47,1.43V15.38l.23-.2h1.76Z"/><path class="cls-3" d="M98.77,30.07c0,3.59-1.65,5.41-6.27,5.41-4.42,0-6-1.88-6.1-4.93l.22-.19h1.79l.2.19c.11,2,1.43,2.72,3.86,2.72,3.28,0,4.12-.82,4.12-3.25a2.74,2.74,0,0,0-1.71-2.86c-1.74-.89-3.44-1.68-5.54-2.71-1.51-.76-2.61-1.82-2.61-4.51,0-2.94,1.43-5,5.8-5s5.88,1.2,6,4.76l-.22.22H96.48l-.23-.25c0-2-.72-2.58-3.72-2.58s-3.61,1-3.61,2.72a2.77,2.77,0,0,0,1.73,2.86c1.46.67,3.61,1.62,5,2.29C97.76,25.9,98.77,26.91,98.77,30.07Z"/><path class="cls-3" d="M113.19,25.15v.42L119.83,34v.9l-.2.22H118c-2.43-2.82-4.48-5.6-6.77-8.45h-1.82v8.23l-.2.22h-1.85l-.19-.22V15.38l.22-.23h1.82l.2.23V24.5h1.54l6.52-9.35h1.65a1.13,1.13,0,0,0,.17.23v.84Z"/><path class="cls-3" d="M133.83,33.15v1.74l-.2.22H122.52l-.2-.22V15.38l.2-.23h1.87a1,1,0,0,0,.14.23V32.93h9.1Z"/><path class="cls-3" d="M139.06,34.89l-.19.22h-1.79l-.23-.22V15.38l.23-.23h1.79l.19.23Z"/><path class="cls-3" d="M155.84,15.38V34.89l-.2.25-2.46,0-7.51-15-.42-1.28V34.92l-.19.22h-1.8l-.22-.22V15.4l.22-.22h2.38l7.54,15,.47,1.43V15.38l.23-.2h1.76Z"/><path class="cls-3" d="M162.92,35.11V17.39H158l-.2-.19V15.38l.2-.23h12.13l.19.2v1.76l-.28.28h-4.87v17.5l-.23.22Z"/><path class="cls-3" d="M91.27,44v9.31c0,2.41-1.2,3.59-4,3.59s-4-1.19-4-3.61V44l.13-.14h1.15l.14.14v9.27c0,1.66,1,2.29,2.6,2.29s2.57-.68,2.57-2.29V44l.13-.14h1.15Z"/><path class="cls-3" d="M101.33,44V56.57l-.12.16H99.62L94.8,47.08l-.27-.83V56.59l-.13.14H93.25l-.14-.14V44l.14-.14h1.53l4.84,9.63.31.92V44l.14-.12h1.14Z"/><path class="cls-3" d="M103.33,56.53V44l.14-.12h7.26l.13.12v1.16l-.15.14h-6v3.92h5.57l.12.13V50.5l-.12.15h-5.57v4.66h6l.15.16v1.1l-.13.15h-7.22Z"/><path class="cls-3" d="M120.4,53.47c0,2.31-1.07,3.48-4,3.48s-3.87-1.21-3.92-3.17l.14-.13h1.15l.13.13c.07,1.28.92,1.75,2.48,1.75,2.11,0,2.65-.53,2.65-2.09a1.76,1.76,0,0,0-1.1-1.84c-1.11-.57-2.21-1.08-3.56-1.74a2.81,2.81,0,0,1-1.68-2.9c0-1.89.92-3.24,3.73-3.24s3.78.77,3.85,3.06l-.14.14h-1.17l-.14-.16c0-1.3-.47-1.66-2.4-1.66s-2.32.67-2.32,1.75a1.77,1.77,0,0,0,1.11,1.83c.94.44,2.33,1,3.25,1.48C119.75,50.79,120.4,51.44,120.4,53.47Z"/><path class="cls-3" d="M129.9,53.4c-.07,2-1.15,3.48-3.93,3.48s-3.9-1.57-3.9-3.66V47.35c0-1.53.86-3.56,3.92-3.56,2.87,0,3.86,1.49,3.91,3.31l-.09.09h-1.24l-.11-.09c-.07-1.31-.63-1.89-2.47-1.93h-.23a2,2,0,0,0-2.29,2.22v5.83a2,2,0,0,0,2.29,2.23H126c1.77,0,2.38-.59,2.47-2l.14-.18h1.16Z"/><path class="cls-3" d="M135.73,57c-2.86,0-4-1.66-4-3.41V46.92c0-1.6,1.08-3.39,4-3.39s4,1.68,4,3.41V53.6C139.75,55.31,138.61,57,135.73,57Zm2.58-10c0-1.64-1.14-2.09-2.56-2.09-1.6,0-2.61.5-2.61,2.09v6.6c0,1.66,1.71,2.07,2.48,2.07h.25c.74,0,2.44-.34,2.44-2.05Z"/><path class="cls-3" d="M154.33,44v.49l-3.39,12.21h-3c-1.1-4-2.29-8.14-3.39-12.1V44l.17-.16h1.06c1,3.56,2.23,7.67,3.22,11.21v.22h.79v-.22l3.26-11.21h1.1Z"/><path class="cls-3" d="M155.44,56.53V44l.14-.12h7.26L163,44v1.16l-.14.14h-6v3.92h5.56l.13.13V50.5l-.13.15h-5.56v4.66h6l.14.16v1.1l-.12.15h-7.22Z"/><path class="cls-3" d="M173.21,56.72H172l-3.2-5.57-1.3,0-.79-.47v5.92l-.16.15h-1.1l-.16-.15V44l.12-.12h4.23c2.69,0,3.32,1.53,3.32,3.22v1c0,.74-.31,3-2.56,3l3,5.07v.4Zm-3.77-6.81c1.52,0,2.06-.45,2.06-1.84v-.92c0-1.42-.58-1.85-1.91-1.85h-2.9v4.61Z"/><path class="cls-3" d="M183,47.28v6a3.24,3.24,0,0,1-3.39,3.44h-4.28s-.13-.13-.15-.15V44l.19-.14h4.17A3.25,3.25,0,0,1,183,47.28Zm-1.41,0a1.8,1.8,0,0,0-1.9-2h-3.08v10h3.09a1.79,1.79,0,0,0,1.89-2.05Z"/><path class="cls-3" d="M184.83,56.53V44l.15-.12h7.25l.13.12v1.16l-.15.14h-6v3.92h5.57l.12.13V50.5l-.12.15h-5.57v4.66h6l.15.16v1.1l-.13.15H185Z"/><path class="cls-3" d="M202.4,44V56.57l-.12.16h-1.59l-4.82-9.64-.27-.83V56.59l-.13.14h-1.15l-.15-.14V44l.15-.14h1.53l4.84,9.63.31.92V44l.14-.12h1.14Z"/><path class="cls-3" d="M212.14,53.47c0,2.31-1.06,3.48-4,3.48s-3.87-1.21-3.93-3.17l.15-.13h1.15l.12.13c.08,1.28.92,1.75,2.49,1.75,2.11,0,2.65-.53,2.65-2.09a1.76,1.76,0,0,0-1.1-1.84c-1.12-.57-2.22-1.08-3.57-1.74A2.8,2.8,0,0,1,204.4,47c0-1.89.92-3.24,3.72-3.24s3.79.77,3.86,3.06l-.15.14h-1.17l-.14-.16c0-1.3-.47-1.66-2.4-1.66s-2.32.67-2.32,1.75a1.76,1.76,0,0,0,1.12,1.83c.94.44,2.32,1,3.24,1.48C211.49,50.79,212.14,51.44,212.14,53.47Z"/><path class="cls-3" d="M222.63,56.55v.17h-1.44l-.81-3.61h-5l-.8,3.61h-1.44v-.15l2.92-12.69h3.57C220.6,48.11,221.64,52.34,222.63,56.55ZM220,51.71l-1.39-6.48h-1.5l-1.42,6.48Z"/><path class="cls-3" d="M232.5,56.72h-1.23l-3.2-5.57-1.3,0-.79-.47v5.92l-.16.15h-1.1l-.16-.15V44l.12-.12h4.24c2.68,0,3.31,1.53,3.31,3.22v1c0,.74-.31,3-2.56,3l3,5.07v.4Zm-3.77-6.81c1.52,0,2.06-.45,2.06-1.84v-.92c0-1.42-.58-1.85-1.91-1.85H226v4.61Z"/><path class="cls-3" d="M243.12,44v.49l-3.39,12.21h-3c-1.1-4-2.29-8.14-3.38-12.1V44l.16-.16h1.06c1,3.56,2.23,7.67,3.22,11.21v.22h.8v-.22l3.25-11.21H243Z"/></svg>
