<svg id="stevnsmuseum" xmlns="http://www.w3.org/2000/svg" xmlns:xlink="http://www.w3.org/1999/xlink" width="78.61mm" height="73.9mm" viewBox="0 0 222.83 209.49"><defs><style>.cls-1{fill:#fff;}.cls-2{fill:#008db8;fill-rule:evenodd;}</style><symbol id="New_Symbol_36" data-name="New Symbol 36" viewBox="0 0 79.31 70.73"><polygon class="cls-2" points="29.7 41.23 31.34 42.19 32.38 43.51 33.72 44.54 35.57 44.99 34.16 45.21 34.31 45.73 31.19 45.21 30.82 44.62 30.74 44.84 29.7 41.23 29.7 41.23"/><polygon class="cls-2" points="38.4 52.44 38.7 53.03 38.25 52.58 38.4 52.44 38.4 52.44"/><polygon class="cls-2" points="11.19 53.17 11.27 53.91 12.68 56.12 10.97 54.28 10.23 54.13 10.3 53.47 11.19 53.17 11.19 53.17"/><path class="cls-2" d="M4.9,0,15.22,6.52l2.22,3.36-.23,2.73.75,1.7-.6,1.47,2,1.92L18.92,19,20,22.86,19.89,26l.22,1.25,1.05-.51.44.07.3-.22,2.52-.07,4.24.88.67,1.47.52-.29L33,29.2v1.11l1.56.52.37.88h1l.59,1-.07.82.37,1,.45-.45,1,1.78-.08,1.4,2,.73,1.19-.36,6.76,1,3,1.55,1.26-.67,2.38,1.33h1.86l.89.89,2.15,1.32-2,3.76-.23,2.29-1,1.48,2.3,1.69H78.6l.71.82-11.49.1-8.08-.18s6.43.51,7.11.77l.17.77-10.62.68-3-.6-6.9.37.67-.29,5.27-.45L51,54.28l-.45-.44H48.65L47,54.28,38,54.21l.67.14L20.56,56.79l-3.42,2.06L1.89,70.51,0,70.73l.05-3.47,4.31-4.72,1.48-.88h2.9l3.2-1.48,1.63-1.77-.74-2.07,4.53-2,.38.23,6.39-.67.44.44,8.18-.73,1-.37,24.53-.37L57,51.7l-1.71.22-.89-.37-1.64.08.45-.3H51.11l.29.88-1.11-.36-5-.3.15.74h-2.9l-2.9-1-7.43-1.25-1.12-.89-2.9-1,.08.15-.89-.45-11.82-2L14.32,46l-4,1.25-5.42.89L6.14,49l-4-.44-2.08.89V41l.52,1.41,12.11.51,2.75-.29,1,.81L20,44.69l.74-.44,1.86.44h.67l1.93.74,3.27.66,4,2.44,1.19.07.74.44,1.64.52,2.75.22L37.65,49l.38-.37-2.16-1.54L36,45.28l-1.49-5.53L32.45,40l-3-2.06-.6.15-3.19-2.88-.15-.88-2.9-1.7-3.27-1.33-3.2,5.39.3-2.88-1.34-.52,2.9-2.5-3.34-1.92L16.1,26.7l-.67-1.11-2.9-2.36-1.93-1L9,19.69,4.51,15.93.94,14.75l-.89-.52L.14.79ZM17.07,34.66l.81-1.7-.81,1.7Zm20.51,7.82.59.66L38,46.54l1.63.59,4.24,2.65,1.86.22.07.74H54.9l.67-.59.74-1.4.37-1.92-1.26-2.14H52.59L51.85,44l-.59.74-2.61-.67-1,1,.15,1,.52.81,1.11.82-4.9-.37-2.08-.52.81-1.33,1.19.15.45-.74-.52-.66-.22.37L42,44.32l.59-1.18L41,42.78l-.6.14L37.13,41l.45,1.48Zm7.06,8.26-.82-.15.82.15Zm13.9,2.14h0Zm4.53,1.18-2.6-.59-4.68.66.22-.29-2.45.29,3.19.45.23.36,9.81-.51-.52-.52-3.2.15Zm-39.83,1.7,3.71-1-3.71,1Z"/><polygon class="cls-2" points="41.15 54.28 38.62 54.65 41.15 54.28 41.15 54.28"/></symbol><symbol id="New_Symbol_27" data-name="New Symbol 27" viewBox="0 0 111.27 117.28"><polygon class="cls-1" points="1.39 0 110.03 0 111.27 1.24 111.27 9.26 64.97 55.56 64.97 61.73 111.27 108.03 111.27 116.05 110.03 117.28 1.39 117.28 0.15 116.05 0.15 1.24 1.39 0"/><use width="79.31" height="70.73" transform="translate(0 22.58)" xlink:href="#New_Symbol_36"/></symbol></defs><title>stevnsklint-logo</title><use width="111.27" height="117.29" transform="translate(0 -30.78) scale(2.35)" xlink:href="#New_Symbol_27"/></svg>
