<svg xmlns="http://www.w3.org/2000/svg" width="92.24mm" height="97.23mm" viewBox="0 0 261.47 275.6"><defs><style>.cls-1{fill:#fff;}.cls-2{fill:none;stroke:#fda428;stroke-miterlimit:10;stroke-width:3px;}.cls-3{fill:#beb497;}</style></defs><title>adresse</title><g id="Layer_3" data-name="Layer 3"><rect class="cls-1" x="0.31" width="261.38" height="274.98"/></g><g id="Layer_1" data-name="Layer 1"><path class="cls-2" d="M130.47,18.81s47.46-1.3,50.95,46.32-50.95,122-50.95,122"/><path class="cls-2" d="M131,18.81s-47.46-1.3-51,46.32,51,122,51,122"/><ellipse class="cls-2" cx="131" cy="74.61" rx="19" ry="17.75"/><rect class="cls-3" x="55.58" y="207.21" width="205.57" height="68.78"/><path class="cls-1" d="M120.88,250v.25h-2.24l-1.26-5.6h-7.75l-1.23,5.6h-2.24V250l4.53-19.74h5.55C117.72,236.88,119.34,243.46,120.88,250Zm-4.08-7.54-2.16-10.08h-2.32l-2.22,10.08Z"/><path class="cls-1" d="M135.75,235.6v9.32c0,1.74-.87,5.35-5.26,5.35h-6.67a2.49,2.49,0,0,1-.22-.23V230.5l.28-.22h6.5A5.05,5.05,0,0,1,135.75,235.6Zm-2.18.08c0-2.66-1.79-3.19-3-3.19h-4.79v15.59h4.82c1.17,0,2.94-.53,2.94-3.19Z"/><path class="cls-1" d="M151.74,250.27h-1.91l-5-8.65-2-.06-1.23-.73V250l-.25.23h-1.71l-.25-.23V230.5l.2-.2h6.58c4.17,0,5.15,2.38,5.15,5v1.54c0,1.14-.48,4.7-4,4.7l4.59,7.9v.61Zm-5.85-10.59c2.35-.05,3.19-.7,3.19-2.85V235.4c0-2.21-.9-2.88-3-2.88H141.6v7.16Z"/><path class="cls-1" d="M154.31,250V230.5l.23-.2h11.28l.2.2v1.79l-.23.23h-9.26v6.1h8.65l.19.2v1.79l-.19.22h-8.65v7.25h9.26l.23.26V250l-.2.23H154.59Z"/><path class="cls-1" d="M180.86,245.23c0,3.58-1.65,5.4-6.27,5.4-4.43,0-6-1.87-6.11-4.93l.23-.19h1.79l.19.19c.12,2,1.43,2.72,3.87,2.72,3.27,0,4.11-.81,4.11-3.25a2.73,2.73,0,0,0-1.7-2.85c-1.74-.9-3.45-1.68-5.55-2.72-1.51-.76-2.6-1.82-2.6-4.51,0-2.94,1.43-5,5.79-5s5.88,1.21,6,4.76l-.23.23h-1.82l-.22-.26c-.06-2-.73-2.57-3.73-2.57s-3.61,1-3.61,2.71a2.76,2.76,0,0,0,1.74,2.86c1.45.67,3.61,1.62,5,2.3C179.85,241.06,180.86,242.06,180.86,245.23Z"/><path class="cls-1" d="M195.53,245.23c0,3.58-1.65,5.4-6.27,5.4-4.43,0-6-1.87-6.11-4.93l.23-.19h1.79l.2.19c.11,2,1.42,2.72,3.86,2.72,3.28,0,4.12-.81,4.12-3.25a2.72,2.72,0,0,0-1.71-2.85c-1.74-.9-3.45-1.68-5.55-2.72-1.51-.76-2.6-1.82-2.6-4.51,0-2.94,1.43-5,5.8-5s5.88,1.21,6,4.76l-.23.23h-1.82l-.22-.26c-.06-2-.73-2.57-3.72-2.57s-3.62,1-3.62,2.71a2.77,2.77,0,0,0,1.74,2.86c1.46.67,3.61,1.62,5,2.3C194.52,241.06,195.53,242.06,195.53,245.23Z"/><path class="cls-1" d="M198.16,250V230.5l.22-.2h11.29l.19.2v1.79l-.22.23h-9.27v6.1H209l.2.2v1.79l-.2.22h-8.65v7.25h9.27l.22.26V250l-.19.23H198.44Z"/></g></svg>
