<svg xmlns="http://www.w3.org/2000/svg" width="92.24mm" height="97.23mm" viewBox="0 0 261.47 275.6"><defs><style>.cls-1{fill:#fff;}.cls-2{fill:none;stroke:#fda428;stroke-miterlimit:10;stroke-width:4px;}.cls-3{fill:#beb497;}</style></defs><title>aktuelt</title><g id="Layer_3" data-name="Layer 3"><rect class="cls-1" x="-0.19" y="0.31" width="261.38" height="274.98"/></g><g id="Layer_2" data-name="Layer 2"><polygon class="cls-2" points="98.76 28.26 153.99 28.26 133.51 157.74 117.37 157.74 98.76 28.26"/><circle class="cls-2" cx="125.79" cy="177.55" r="8.58"/></g><g id="Layer_1" data-name="Layer 1"><rect class="cls-3" x="56.27" y="207.21" width="205.57" height="68.78"/><path class="cls-1" d="M124.71,250v.25h-2.24l-1.26-5.6h-7.75l-1.24,5.6H110V250l4.54-19.74h5.54C121.55,236.88,123.17,243.46,124.71,250Zm-4.09-7.54-2.15-10.08h-2.33l-2.21,10.08Z"/><path class="cls-1" d="M132.55,240.3v.42l6.64,8.43V250l-.2.23h-1.68c-2.43-2.83-4.48-5.6-6.77-8.46h-1.82V250l-.2.23h-1.85l-.19-.23V230.53l.22-.23h1.82l.2.23v9.13h1.54l6.52-9.36h1.65a1.13,1.13,0,0,0,.17.23v.84Z"/><path class="cls-1" d="M145.85,250.27V232.54h-4.93l-.19-.19v-1.82l.19-.23h12.13l.19.2v1.76l-.28.28h-4.87V250l-.22.23Z"/><path class="cls-1" d="M167.69,230.5V245c0,3.75-1.88,5.57-6.22,5.57s-6.24-1.85-6.24-5.6V230.53l.2-.23h1.79l.22.23V245c0,2.57,1.52,3.55,4,3.55s4-1.06,4-3.55V230.53l.2-.23h1.79Z"/><path class="cls-1" d="M170.52,250V230.5l.22-.2H182l.19.2v1.79l-.22.23h-9.27v6.1h8.65l.2.2v1.79l-.2.22h-8.65v7.25H182l.22.26V250l-.19.23H170.8Z"/><path class="cls-1" d="M196.33,248.31V250l-.19.23H185l-.19-.23V230.53l.19-.23h1.88a1,1,0,0,0,.14.23v17.55h9.1Z"/><path class="cls-1" d="M200.81,250.27V232.54h-4.92l-.2-.19v-1.82l.2-.23H208l.2.2v1.76l-.28.28h-4.87V250l-.23.23Z"/></g></svg>
