<svg xmlns="http://www.w3.org/2000/svg" width="92.24mm" height="97.23mm" viewBox="0 0 261.47 275.6"><defs><style>.cls-1{fill:#fff;}.cls-2{fill:none;stroke:#fda428;stroke-miterlimit:10;stroke-width:3px;}.cls-3{fill:#beb497;}</style></defs><title>billetter</title><g id="Layer_3" data-name="Layer 3"><rect class="cls-1" x="-0.2" y="0.31" width="261.38" height="274.98"/></g><g id="Layer_2" data-name="Layer 2"><path class="cls-2" d="M215.26,110.77l-12.13-17C174,96.21,187,71.13,187,71.13L171.58,50.91,64,131l11.32,19.42s32.36-4.86,17,23.46l12.14,17.8Z"/><line class="cls-2" x1="143.3" y1="71.96" x2="148.98" y2="80.6"/><line class="cls-2" x1="153.01" y1="84.9" x2="158.69" y2="93.54"/><line class="cls-2" x1="162.73" y1="99.2" x2="168.41" y2="107.85"/><line class="cls-2" x1="172.42" y1="112.64" x2="178.1" y2="121.29"/><line class="cls-2" x1="181.33" y1="124.86" x2="187.01" y2="133.51"/><path class="cls-2" d="M67.29,137.69,49,124.63,114.26,7.46,136.58,19.6s-1.52,28.18,24,14L178.1,46.08l-4.35,7.69"/><line class="cls-2" x1="97.11" y1="38.26" x2="105.83" y2="43.81"/><line class="cls-2" x1="111.27" y1="46.08" x2="120" y2="51.63"/><line class="cls-2" x1="126.01" y1="55.13" x2="134.73" y2="60.69"/><line class="cls-2" x1="140.36" y1="63.42" x2="149.08" y2="68.97"/></g><g id="Layer_1" data-name="Layer 1"><rect class="cls-3" x="55.7" y="207.21" width="205.57" height="68.78"/><path class="cls-1" d="M111.29,240.89a13.1,13.1,0,0,1,.48,4.09c0,3.52-.9,5.29-5.38,5.29H99.67l-.2-.23V230.56l.26-.26h6.21c4.37,0,5.55,1.15,5.55,5.58a10.06,10.06,0,0,1-.37,2.63l-1.9,1.15v.47Zm-9.6-2h4.64c1.77,0,2.89-.39,2.89-3.08v-.28c0-2.94-1-3-2.77-3h-4.76Zm7.89,5.4c0-2.77-.64-3.22-2.29-3.22h-5.6v7h4.62c2.43,0,3.27-.4,3.27-3.14Z"/><path class="cls-1" d="M118,250l-.19.23H116l-.22-.23V230.53l.22-.23h1.8l.19.23Z"/><path class="cls-1" d="M133.24,248.31V250l-.19.23H121.93l-.2-.23V230.53l.2-.23h1.88a1,1,0,0,0,.14.23v17.55h9.1Z"/><path class="cls-1" d="M146.74,248.31V250l-.2.23H135.43l-.2-.23V230.53l.2-.23h1.87a1,1,0,0,0,.14.23v17.55h9.1Z"/><path class="cls-1" d="M148.92,250V230.5l.22-.2h11.29l.19.2v1.79l-.22.23h-9.27v6.1h8.65l.2.2v1.79l-.2.22h-8.65v7.25h9.27l.22.26V250l-.19.23H149.2Z"/><path class="cls-1" d="M167.4,250.27V232.54h-4.93l-.19-.19v-1.82l.19-.23H174.6l.19.2v1.76l-.28.28h-4.87V250l-.22.23Z"/><path class="cls-1" d="M181.06,250.27V232.54h-4.92l-.2-.19v-1.82l.2-.23h12.12l.2.2v1.76l-.28.28H183.3V250l-.22.23Z"/><path class="cls-1" d="M190.47,250V230.5l.23-.2H202l.2.2v1.79l-.23.23h-9.27v6.1h8.66l.19.2v1.79l-.19.22h-8.66v7.25H202l.23.26V250l-.2.23H190.75Z"/><path class="cls-1" d="M218.11,250.27H216.2l-5-8.65-2-.06-1.23-.73V250l-.25.23H206l-.25-.23V230.5l.2-.2h6.58c4.17,0,5.15,2.38,5.15,5v1.54c0,1.14-.48,4.7-4,4.7l4.59,7.9v.61Zm-5.85-10.59c2.35-.05,3.19-.7,3.19-2.85V235.4c0-2.21-.9-2.88-3-2.88H208v7.16Z"/></g></svg>
