<svg xmlns="http://www.w3.org/2000/svg" width="92.24mm" height="97.23mm" viewBox="0 0 261.47 275.6"><defs><style>.cls-1{fill:#fff;}.cls-2{fill:#beb497;}.cls-3,.cls-4{fill:#fda428;}.cls-4{stroke:#fcfcfc;stroke-miterlimit:10;}</style></defs><title>børnehave</title><g id="Layer_3" data-name="Layer 3"><rect class="cls-1" width="261.38" height="274.98"/></g><g id="Layer_1" data-name="Layer 1"><rect class="cls-2" x="56.81" y="207.21" width="205.57" height="68.78"/><path class="cls-1" d="M103.65,240.89a13.1,13.1,0,0,1,.48,4.09c0,3.52-.9,5.29-5.38,5.29H92l-.19-.23V230.56l.25-.26h6.22c4.36,0,5.54,1.15,5.54,5.58a10.49,10.49,0,0,1-.36,2.63l-1.91,1.15v.47Zm-9.6-2H98.7c1.76,0,2.88-.39,2.88-3.08v-.28c0-2.94-1-3-2.77-3H94.05Zm7.9,5.4c0-2.77-.65-3.22-2.3-3.22h-5.6v7h4.62c2.44,0,3.28-.4,3.28-3.14Z"/><path class="cls-1" d="M119.16,235.51v9.69a5.36,5.36,0,0,1-5.68,5.38,7.54,7.54,0,0,1-2-.34l-.56,1.54h-1.43l-.28-.25v-1.18l.36-1.17a5.42,5.42,0,0,1-1.7-4v-9.69a5.25,5.25,0,0,1,5.68-5.26,9.59,9.59,0,0,1,2.13.28c.14-.48.45-1.15.61-1.71h1.43l.2.2v1.29l-.39,1.2A6,6,0,0,1,119.16,235.51Zm-6.57,4.17,2.35-7.11a8,8,0,0,0-1.43-.19c-1.12,0-3.5.39-3.5,3.16v9.74a2.26,2.26,0,0,0,.31,1.38Zm4.31-4.11a4.88,4.88,0,0,0-.23-1.82c-.75,2.29-1.82,5.91-4.59,14.45a5.73,5.73,0,0,0,1.43.16,3.07,3.07,0,0,0,3.39-3.19Z"/><path class="cls-1" d="M135.69,250.27h-1.91l-5-8.65-2-.06-1.23-.73V250l-.25.23h-1.71l-.25-.23V230.5l.19-.2h6.58c4.18,0,5.16,2.38,5.16,5v1.54c0,1.14-.48,4.7-4,4.7l4.59,7.9v.61Zm-5.86-10.59c2.36-.05,3.2-.7,3.2-2.85V235.4c0-2.21-.9-2.88-3-2.88h-4.51v7.16Z"/><path class="cls-1" d="M151.08,230.53V250l-.19.26-2.46,0-7.51-15L140.5,234v16.07l-.19.23h-1.8l-.22-.23V230.56l.22-.23h2.38l7.54,15,.47,1.43V230.53l.22-.2h1.77Z"/><path class="cls-1" d="M154.19,250V230.5l.23-.2H165.7l.2.2v1.79l-.23.23h-9.26v6.1h8.65l.19.2v1.79l-.19.22h-8.65v7.25h9.26l.23.26V250l-.2.23H154.47Z"/><path class="cls-1" d="M181.6,230.53V250l-.19.23h-1.82l-.23-.23v-9.12h-8.09V250l-.19.23h-1.8l-.22-.23V230.53l.22-.23h1.8l.19.23v8.15h8.09v-8.15l.23-.23h1.82Z"/><path class="cls-1" d="M198.57,250v.25h-2.24l-1.26-5.6h-7.75l-1.24,5.6h-2.24V250l4.54-19.74h5.54C195.41,236.88,197,243.46,198.57,250Zm-4.09-7.54-2.15-10.08H190l-2.21,10.08Z"/><path class="cls-1" d="M214.31,230.53v.75l-5.27,19h-4.62c-1.7-6.16-3.55-12.66-5.26-18.82v-.89l.25-.26h1.65c1.57,5.55,3.48,11.93,5,17.45v.33h1.23v-.33l5.07-17.45h1.7Z"/><path class="cls-1" d="M216,250V230.5l.23-.2h11.28l.2.2v1.79l-.23.23h-9.26v6.1h8.65l.19.2v1.79l-.19.22h-8.65v7.25h9.26l.23.26V250l-.2.23H216.32Z"/><circle class="cls-3" cx="103.49" cy="37.92" r="22.17"/><path class="cls-3" d="M112.52,152.6s0,0,0,0L97.66,127.34l.12,0c7.29-3.65,6-39.25,6-40v0c9.86-27.8-16.57-27.24-17.06-27.22h0c-25.78,7.37-13.88,67.22-13.88,67.22l.16.1-7.24,19.47s0,0,0,0c-.45.45-12.62,12.53-21,15.59-8.51,3.12-3.12,21.55,8.22,13.61s17.58-7.94,26.94-20.7c5.66-7.72,5.93-14.6,5.75-17,.1.47.25,1.11.49,2v0l9.62,15.85a.06.06,0,0,1,0,0L98.34,184s0,0,0,.05c13.48,17.11,16.38-2.52,16.43-2.85v0Z"/><path class="cls-4" d="M81.82,69.47c-7,13.24,11.64,42,30.35,46.51,14.75,3.57,12.6-6.14,11-10.42a3.38,3.38,0,0,0-2.41-2.14c-6.07-1.35-11.08-8-16.78-13-5.22-4.54-7.92-17.94-8.64-22A3.42,3.42,0,0,0,94,66.24C91.59,64.49,85.94,61.64,81.82,69.47Z"/><path class="cls-3" d="M85.59,60.46,79.92,63.9H71.69S64.56,100,65,100.35s5.29-.56,5.61,0-.46,3.3-.46,3.3-5.47.42-5.79,0,.65,4.85-4.44,3.3-20.9-3.3-20.9-3.3-4-1.5-2.82-6.31,7.91-39.4,22-42.23,14.22,5.11,14.22,5.11c.9-.2,14.21.58,14.21.58"/><circle class="cls-3" cx="190.59" cy="36.32" r="20.87"/><path class="cls-3" d="M217.59,183.75l-2.13-26.94v0l-14-23.73h0c-7.83-.39-15.66-.44-23.5-.45.06.28.09.44.09.44l.14.09-6.81,18.33,0,0c-.42.42-11.88,11.79-19.74,14.67s-2.93,20.28,7.74,12.81,16.55-7.47,25.36-19.48c5.33-7.27,5.58-13.75,5.42-16,.08.44.23,1,.45,1.86v0l9.06,14.92s0,0,0,0l2.4,26.11s0,0,0,0c12.69,16.1,15.42-2.38,15.46-2.69Z"/><path class="cls-3" d="M186.06,62.22l-5.35,3.24H173s-6.71,34-6.26,34.31,5-.53,5.28,0-.44,3.11-.44,3.11-5.14.4-5.44,0,.61,4.57-4.18,3.11-19.67-3.11-19.67-3.11-3.73-1.41-2.66-5.93,7.44-37.1,20.74-39.76S173.72,62,173.72,62c.85-.19,13.38.54,13.38.54"/><path class="cls-3" d="M215.45,141.46c-25.86-28.52-14.59-64.82-14.59-64.82s.15-15.18-13.68-15.31c-18.12-.17-15.86,35.27-15.49,44s-8.49,43.26-8.49,43.26S218.62,145,215.45,141.46Z"/><path class="cls-4" d="M184.12,72.42c-6.77,12.85,11.29,40.71,29.45,45.11,14.31,3.47,12.21-6,10.68-10.1a3.25,3.25,0,0,0-2.33-2.07C216,104,211.16,97.59,205.63,92.77c-5.06-4.4-7.68-17.39-8.38-21.38a3.31,3.31,0,0,0-1.32-2.11C193.6,67.58,188.12,64.82,184.12,72.42Z"/><path class="cls-3" d="M172.13,22.55c-1.63,2-4,5.27-3.79,7.25a1.48,1.48,0,0,1-.51,1.24c-1.19,1.08-3.41,3.33-3,4.71.53,1.85-2.19,17.24-4.5,16.94,0,0-6,9.81-15.42,8.77a1.61,1.61,0,0,1-1-2.7c3.34-3.5,9.5-10.6,7.53-13.63a1.63,1.63,0,0,1-.29-.68c-.33-2.49-2-16.53,1.69-19.44,3.85-3.05,5.36-9.93,18.59-5A1.61,1.61,0,0,1,172.13,22.55Z"/></g></svg>
