<svg xmlns="http://www.w3.org/2000/svg" width="92.24mm" height="97.23mm" viewBox="0 0 261.47 275.6"><defs><style>.cls-1{fill:#fff;}.cls-2{fill:none;stroke:#fda428;stroke-miterlimit:10;stroke-width:3px;}.cls-3{fill:#beb497;}</style></defs><title>findvej</title><g id="Layer_3" data-name="Layer 3"><rect class="cls-1" x="-0.22" width="261.38" height="274.98"/></g><g id="Layer_1" data-name="Layer 1"><path class="cls-2" d="M130.47,19s47.46-1.3,50.95,46.32-50.95,122-50.95,122"/><path class="cls-2" d="M131,19s-47.46-1.3-51,46.32,51,122,51,122"/><ellipse class="cls-2" cx="131" cy="74.76" rx="19" ry="17.75"/><rect class="cls-3" x="56.27" y="207.21" width="205.57" height="68.78"/><path class="cls-1" d="M109.72,250.27V230.5l.23-.2h11.28l.2.2v1.79l-.23.23h-9.26v6.1h8.65l.19.2v1.79l-.19.22h-8.65V250l-.23.23Z"/><path class="cls-1" d="M126.94,250l-.19.23H125l-.23-.23V230.53l.23-.23h1.79l.19.23Z"/><path class="cls-1" d="M143.72,230.53V250l-.2.26-2.46,0-7.51-15-.42-1.29v16.07l-.19.23h-1.8l-.22-.23V230.56l.22-.23h2.38l7.54,15,.47,1.43V230.53l.23-.2h1.76Z"/><path class="cls-1" d="M159.48,235.6v9.32c0,1.74-.87,5.35-5.26,5.35h-6.67a1.21,1.21,0,0,1-.22-.23V230.5l.28-.22h6.49A5.06,5.06,0,0,1,159.48,235.6Zm-2.18.08c0-2.66-1.8-3.19-3-3.19h-4.79v15.59h4.81c1.18,0,3-.53,3-3.19Z"/><path class="cls-1" d="M182.44,230.53v.75l-5.27,19h-4.62c-1.7-6.16-3.55-12.66-5.26-18.82v-.89l.25-.26h1.65c1.57,5.55,3.48,11.93,5,17.45v.33h1.23v-.33l5.07-17.45h1.7Z"/><path class="cls-1" d="M184.18,250V230.5l.22-.2h11.28l.2.2v1.79l-.23.23h-9.26v6.1H195l.19.2v1.79l-.19.22h-8.65v7.25h9.26l.23.26V250l-.2.23H184.45Z"/><path class="cls-1" d="M209,230.53v14.92c0,3.36-1.32,5.07-5.55,5.07-4.39,0-5.48-1.12-5.51-4.87l.17-.2H200l.17.17c0,2.46.59,2.69,3.33,2.69,1.46,0,3.33-.25,3.33-2.66V232.52h-7.16a1.79,1.79,0,0,1-.23-.26v-1.73l.23-.23h9.15Z"/></g></svg>
