<svg xmlns="http://www.w3.org/2000/svg" width="92.24mm" height="97.23mm" viewBox="0 0 261.47 275.6"><defs><style>.cls-1{fill:#fff;}.cls-2{fill:#776b5f;}.cls-3,.cls-4{fill:#fda428;}.cls-4{stroke:#fcfcfc;stroke-miterlimit:10;}</style></defs><title>folkeskole-dark</title><g id="Layer_3" data-name="Layer 3"><rect class="cls-1" x="0.02" width="261.38" height="274.98"/></g><g id="Layer_1" data-name="Layer 1"><rect class="cls-2" x="56.54" y="207.21" width="205.57" height="68.78"/><path class="cls-1" d="M88.29,250.27V230.5l.22-.2H99.79l.2.2v1.79l-.22.23H90.5v6.1h8.65l.2.2v1.79l-.2.22H90.5V250l-.22.23Z"/><path class="cls-1" d="M108.89,250.66c-4.45,0-6.21-2.58-6.21-5.29V235c0-2.5,1.68-5.27,6.24-5.27,4.37,0,6.22,2.61,6.22,5.29v10.36C115.14,248.08,113.37,250.66,108.89,250.66Zm4-15.57c0-2.55-1.77-3.25-4-3.25-2.49,0-4.06.79-4.06,3.25v10.28c0,2.57,2.66,3.22,3.87,3.22h.39c1.15,0,3.78-.53,3.78-3.19Z"/><path class="cls-1" d="M129,248.31V250l-.2.23H117.71l-.19-.23V230.53l.19-.23h1.88a1,1,0,0,0,.14.23v17.55h9.1Z"/><path class="cls-1" d="M136.84,240.3v.42l6.63,8.43V250l-.19.23H141.6c-2.44-2.83-4.48-5.6-6.78-8.46H133V250l-.19.23H131l-.2-.23V230.53l.23-.23h1.82l.19.23v9.13h1.54l6.53-9.36h1.65a1.13,1.13,0,0,0,.17.23v.84Z"/><path class="cls-1" d="M146.16,250V230.5l.23-.2h11.28l.2.2v1.79l-.23.23h-9.27v6.1H157l.19.2v1.79l-.19.22h-8.66v7.25h9.27l.23.26V250l-.2.23H146.44Z"/><path class="cls-1" d="M172.71,245.23c0,3.58-1.66,5.4-6.28,5.4-4.42,0-6-1.87-6.1-4.93l.22-.19h1.8l.19.19c.11,2,1.43,2.72,3.87,2.72,3.27,0,4.11-.81,4.11-3.25a2.72,2.72,0,0,0-1.71-2.85c-1.73-.9-3.44-1.68-5.54-2.72-1.51-.76-2.6-1.82-2.6-4.51,0-2.94,1.42-5,5.79-5s5.88,1.21,6,4.76l-.22.23h-1.82l-.22-.26c-.06-2-.73-2.57-3.73-2.57s-3.61,1-3.61,2.71a2.76,2.76,0,0,0,1.74,2.86c1.45.67,3.61,1.62,5,2.3C171.7,241.06,172.71,242.06,172.71,245.23Z"/><path class="cls-1" d="M181,240.3v.42l6.63,8.43V250l-.19.23h-1.68c-2.44-2.83-4.48-5.6-6.78-8.46h-1.82V250l-.2.23h-1.84l-.2-.23V230.53l.22-.23h1.82l.2.23v9.13h1.54l6.52-9.36h1.66a1.6,1.6,0,0,0,.16.23v.84Z"/><path class="cls-1" d="M196.73,250.66c-4.45,0-6.22-2.58-6.22-5.29V235c0-2.5,1.68-5.27,6.25-5.27,4.37,0,6.21,2.61,6.21,5.29v10.36C203,248.08,201.21,250.66,196.73,250.66Zm4-15.57c0-2.55-1.76-3.25-4-3.25-2.49,0-4.06.79-4.06,3.25v10.28c0,2.57,2.66,3.22,3.86,3.22H197c1.15,0,3.78-.53,3.78-3.19Z"/><path class="cls-1" d="M216.86,248.31V250l-.19.23H205.55l-.2-.23V230.53l.2-.23h1.88a1,1,0,0,0,.14.23v17.55h9.1Z"/><path class="cls-1" d="M219.05,250V230.5l.22-.2h11.28l.2.2v1.79l-.22.23h-9.27v6.1h8.65l.2.2v1.79l-.2.22h-8.65v7.25h9.27l.22.26V250l-.2.23H219.33Z"/><circle class="cls-3" cx="103.53" cy="37.92" r="22.17"/><path class="cls-3" d="M112.57,152.6s0,0,0,0L97.7,127.34l.12,0c7.3-3.65,6-39.25,6-40a0,0,0,0,1,0,0c9.86-27.8-16.57-27.24-17.06-27.22h0C61,67.47,72.87,127.32,72.87,127.32l.15.1-7.23,19.47,0,0c-.45.45-12.62,12.53-21,15.59-8.51,3.12-3.12,21.55,8.22,13.61S70.6,168.18,80,155.42c5.66-7.72,5.92-14.6,5.75-17,.1.47.25,1.11.48,2,0,0,0,0,0,0l9.63,15.85v0L98.39,184s0,0,0,.05c13.48,17.11,16.38-2.52,16.43-2.85v0Z"/><path class="cls-4" d="M81.87,69.47c-7,13.24,11.64,42,30.35,46.51,14.75,3.57,12.59-6.14,11-10.42a3.4,3.4,0,0,0-2.41-2.14c-6.07-1.35-11.09-8-16.79-13-5.22-4.54-7.91-17.94-8.63-22a3.46,3.46,0,0,0-1.36-2.17C91.64,64.49,86,61.64,81.87,69.47Z"/><path class="cls-3" d="M85.64,60.46,80,63.9H71.73S64.61,100,65.09,100.35s5.28-.56,5.6,0-.46,3.3-.46,3.3-5.46.42-5.78,0S65.1,108.5,60,107s-20.9-3.3-20.9-3.3-4-1.5-2.83-6.31,7.91-39.4,22-42.23,14.22,5.11,14.22,5.11c.89-.2,14.21.58,14.21.58"/><circle class="cls-3" cx="190.64" cy="36.32" r="20.87"/><path class="cls-3" d="M217.64,183.75l-2.14-26.94a.06.06,0,0,0,0,0l-14-23.73h0c-7.83-.39-15.66-.44-23.5-.45l.08.44.15.09-6.81,18.33,0,0c-.42.42-11.88,11.79-19.74,14.67-8,2.93-2.94,20.28,7.74,12.81s16.55-7.47,25.36-19.48c5.33-7.27,5.57-13.75,5.41-16,.09.44.23,1,.46,1.86v0l9.05,14.92,0,0,2.39,26.11,0,0c12.69,16.1,15.42-2.38,15.47-2.69Z"/><path class="cls-3" d="M186.11,62.22l-5.35,3.24H173s-6.7,34-6.25,34.31,5-.53,5.27,0-.43,3.11-.43,3.11-5.14.4-5.44,0,.61,4.57-4.18,3.11-19.68-3.11-19.68-3.11-3.72-1.41-2.65-5.93,7.44-37.1,20.74-39.76S173.77,62,173.77,62c.84-.19,13.38.54,13.38.54"/><path class="cls-3" d="M215.5,141.46c-25.86-28.52-14.59-64.82-14.59-64.82s.14-15.18-13.68-15.31c-18.12-.17-15.86,35.27-15.5,44s-8.48,43.26-8.48,43.26S218.67,145,215.5,141.46Z"/><path class="cls-4" d="M184.16,72.42c-6.76,12.85,11.3,40.71,29.45,45.11,14.31,3.47,12.22-6,10.69-10.1a3.26,3.26,0,0,0-2.34-2.07c-5.88-1.32-10.75-7.77-16.28-12.59-5.07-4.4-7.68-17.39-8.38-21.38A3.31,3.31,0,0,0,196,69.28C193.65,67.58,188.16,64.82,184.16,72.42Z"/><path class="cls-3" d="M172.18,22.55c-1.63,2-4,5.27-3.79,7.25a1.49,1.49,0,0,1-.52,1.24c-1.18,1.08-3.41,3.33-3,4.71.53,1.85-2.18,17.24-4.5,16.94,0,0-6,9.81-15.41,8.77a1.61,1.61,0,0,1-1-2.7c3.34-3.5,9.49-10.6,7.52-13.63a1.75,1.75,0,0,1-.28-.68c-.33-2.49-2-16.53,1.69-19.44,3.85-3.05,5.36-9.93,18.59-5A1.61,1.61,0,0,1,172.18,22.55Z"/></g></svg>
