<svg xmlns="http://www.w3.org/2000/svg" width="92.24mm" height="97.23mm" viewBox="0 0 261.47 275.6"><defs><style>.cls-1{fill:#fff;}.cls-2{fill:none;stroke:#8cd2ce;stroke-miterlimit:10;stroke-width:4px;}.cls-3{fill:#8cd2ce;}</style></defs><title>geo-findvej</title><g id="Layer_1" data-name="Layer 1"><rect class="cls-1" x="-0.35" y="-0.23" width="261.38" height="274.98"/><path class="cls-2" d="M130.34,18.73s47.46-1.3,50.95,46.32-50.95,122-50.95,122"/><path class="cls-2" d="M130.87,18.73s-47.46-1.3-51,46.32,51,122,51,122"/><ellipse class="cls-2" cx="130.87" cy="74.53" rx="19" ry="17.75"/><rect class="cls-3" x="56.14" y="206.98" width="205.57" height="68.78"/><path class="cls-1" d="M109.59,250V230.27l.23-.2H121.1l.2.2v1.79l-.23.23h-9.26v6.1h8.65l.19.2v1.79l-.19.22h-8.65v9.21l-.23.23Z"/><path class="cls-1" d="M126.81,249.81l-.19.23h-1.8l-.22-.23V230.3l.22-.23h1.8l.19.23Z"/><path class="cls-1" d="M143.58,230.3v19.51l-.19.26-2.46,0-7.51-15-.42-1.29v16.07l-.19.23H131l-.22-.23V230.33l.22-.23h2.38l7.54,15,.47,1.43V230.3l.22-.2h1.77Z"/><path class="cls-1" d="M159.35,235.37v9.32c0,1.74-.87,5.35-5.27,5.35h-6.66a1.21,1.21,0,0,1-.22-.23V230.27l.28-.22H154A5.06,5.06,0,0,1,159.35,235.37Zm-2.19.08c0-2.66-1.79-3.19-3-3.19h-4.79v15.59h4.81c1.18,0,2.94-.53,2.94-3.19Z"/><path class="cls-1" d="M182.31,230.3v.75L177,250h-4.62c-1.7-6.16-3.55-12.66-5.26-18.82v-.89l.25-.26h1.65c1.57,5.55,3.48,11.93,5,17.45v.33h1.23v-.33l5.07-17.45h1.7Z"/><path class="cls-1" d="M184,249.76V230.27l.23-.2h11.28l.2.2v1.79l-.23.23h-9.26v6.1h8.65l.19.2v1.79l-.19.22h-8.65v7.25h9.26l.23.26v1.7l-.2.23H184.32Z"/><path class="cls-1" d="M208.91,230.3v14.92c0,3.36-1.32,5.07-5.55,5.07-4.39,0-5.48-1.12-5.51-4.87l.17-.2h1.87l.17.17c0,2.46.59,2.69,3.33,2.69,1.46,0,3.33-.25,3.33-2.66V232.29h-7.16a1.79,1.79,0,0,1-.23-.26V230.3l.23-.23h9.15Z"/></g></svg>
