<svg xmlns="http://www.w3.org/2000/svg" width="92.24mm" height="97.23mm" viewBox="0 0 261.47 275.6"><defs><style>.cls-1{fill:#fff;}.cls-2{fill:none;stroke:#8cd2ce;stroke-miterlimit:10;stroke-width:4px;}.cls-3{fill:#8cd2ce;}</style></defs><title>geo-åbning</title><g id="Layer_1" data-name="Layer 1"><rect class="cls-1" x="-0.17" y="-0.46" width="261.38" height="274.98"/><circle class="cls-2" cx="130.96" cy="103.35" r="75.12"/><polyline class="cls-2" points="126.59 55.45 126.59 107.61 178.75 107.61"/><rect class="cls-3" x="55.85" y="206.24" width="205.57" height="68.78"/><path class="cls-1" d="M84.28,253.17v.25H82.1l-1.26-5.59H72.69l-1.23,5.59H69.27v-.22l4.54-19.74h5.82C81.12,240,82.74,246.62,84.28,253.17Zm-4-7.53L78.09,235.5H75.38l-2.22,10.14Zm-6.25-13s-.19-.7-.19-.81a3,3,0,1,1,6,0,4.45,4.45,0,0,1-.31.81H78.18V232c0-1.26-.59-1.46-1.4-1.46s-1.32.2-1.32,1.46a3.86,3.86,0,0,0,0,.67Z"/><path class="cls-1" d="M97.77,244.05a12.77,12.77,0,0,1,.48,4.08c0,3.53-.9,5.29-5.37,5.29H86.16l-.2-.22V233.71l.25-.25h6.22c4.37,0,5.54,1.15,5.54,5.57a10.57,10.57,0,0,1-.36,2.64l-1.91,1.14v.48Zm-9.6-2h4.65c1.76,0,2.88-.39,2.88-3.08v-.28c0-2.94-1-3-2.77-3H88.17Zm7.9,5.4c0-2.77-.65-3.22-2.3-3.22h-5.6v7h4.62c2.44,0,3.28-.39,3.28-3.13Z"/><path class="cls-1" d="M114.24,233.68V253.2l-.2.25-2.46,0-7.51-15-.42-1.29v16.07l-.19.22h-1.79l-.23-.22V233.71l.23-.22h2.38l7.53,15,.48,1.43V233.68l.22-.19H114Z"/><path class="cls-1" d="M120.4,253.2l-.2.22h-1.79l-.22-.22V233.68l.22-.22h1.79l.2.22Z"/><path class="cls-1" d="M137.17,233.68V253.2l-.19.25-2.47,0-7.5-15-.42-1.29v16.07l-.2.22H124.6l-.23-.22V233.71l.23-.22H127l7.53,15,.48,1.43V233.68l.22-.19H137Z"/><path class="cls-1" d="M150.08,244.38l1.12-1.32h1.15c0,2.89,0,9.11,0,10.14l-.25.25-2,0v-.95l-3.81,1.18c-5.15,0-6.05-2.44-6.05-5.69v-9.4c0-1.74.81-5.27,6.11-5.27,4.84,0,6,1.66,6,4.76l-.22.25h-1.76l-.26-.25c-.16-2.24-1.2-2.57-3.8-2.57-2,0-3.92.36-3.92,3.13V248c0,2.78,1.12,3.45,3.92,3.45l3.75-.08Z"/><path class="cls-1" d="M167.58,248.38c0,3.59-1.65,5.41-6.27,5.41-4.43,0-6-1.88-6.11-4.93l.23-.19h1.79l.19.19c.12,2,1.43,2.72,3.87,2.72,3.27,0,4.11-.82,4.11-3.25a2.75,2.75,0,0,0-1.7-2.86c-1.74-.89-3.45-1.68-5.55-2.71-1.51-.76-2.6-1.82-2.6-4.51,0-2.94,1.43-5,5.79-5s5.88,1.2,6,4.76l-.23.22h-1.82l-.22-.25c-.06-2-.73-2.57-3.73-2.57s-3.61,1-3.61,2.71a2.76,2.76,0,0,0,1.74,2.86c1.45.67,3.61,1.62,5,2.29C166.57,244.21,167.58,245.22,167.58,248.38Z"/><path class="cls-1" d="M174.19,253.42V235.7h-4.93l-.2-.2v-1.82l.2-.22h12.12l.2.2v1.76l-.28.28h-4.87v17.5l-.23.22Z"/><path class="cls-1" d="M186.65,253.2l-.2.22h-1.79l-.23-.22V233.68l.23-.22h1.79l.2.22Z"/><path class="cls-1" d="M203.25,238.75v9.33c0,1.73-.87,5.34-5.26,5.34h-6.67s-.19-.19-.22-.22V233.66l.28-.23h6.49A5.06,5.06,0,0,1,203.25,238.75Zm-2.18.09c0-2.66-1.8-3.2-3-3.2h-4.79v15.6h4.82c1.17,0,2.94-.53,2.94-3.19Z"/><path class="cls-1" d="M206.11,253.14V233.66l.22-.2h11.28l.2.2v1.79l-.22.22h-9.27v6.11H217l.2.19v1.79l-.2.23h-8.65v7.25h9.27l.22.25v1.71l-.2.22H206.39Z"/><path class="cls-1" d="M233.74,253.42h-1.9l-5-8.65-2-.05-1.23-.73v9.21l-.26.22h-1.71l-.25-.22V233.66l.2-.2h6.58c4.17,0,5.15,2.38,5.15,5V240c0,1.15-.47,4.71-4,4.71l4.59,7.89v.62Zm-5.85-10.58c2.35-.05,3.19-.7,3.19-2.85v-1.43c0-2.22-.9-2.89-3-2.89h-4.5v7.17Z"/></g></svg>
