<svg xmlns="http://www.w3.org/2000/svg" width="92.24mm" height="97.23mm" viewBox="0 0 261.47 275.6"><defs><style>.cls-1{fill:#fff;}.cls-2{fill:none;stroke:#8cd2ce;stroke-miterlimit:10;stroke-width:4px;}.cls-3{fill:#8cd2ce;}</style></defs><title>geo-aktuelt</title><g id="Layer_1" data-name="Layer 1"><rect class="cls-1" x="0.6" y="0.17" width="261.38" height="274.98"/><polygon class="cls-2" points="97.54 28.12 152.77 28.12 132.29 157.6 116.16 157.6 97.54 28.12"/><circle class="cls-2" cx="124.58" cy="177.41" r="8.58"/><rect class="cls-3" x="58.06" y="207.07" width="205.57" height="68.78"/><path class="cls-1" d="M125.5,249.88v.25h-2.24l-1.26-5.6h-7.76l-1.23,5.6h-2.24v-.22l4.54-19.74h5.54C122.33,236.75,124,243.33,125.5,249.88Zm-4.09-7.53-2.16-10.08h-2.32l-2.21,10.08Z"/><path class="cls-1" d="M133.34,240.16v.42L140,249v.9l-.2.22H138.1c-2.44-2.83-4.48-5.6-6.78-8.46H129.5v8.24l-.19.22h-1.85l-.2-.22V230.39l.23-.22h1.82l.19.22v9.13H131l6.53-9.35h1.65a1.09,1.09,0,0,0,.17.22v.84Z"/><path class="cls-1" d="M146.64,250.13V232.41h-4.93l-.2-.2v-1.82l.2-.22h12.12l.2.19v1.77l-.28.28h-4.87v17.5l-.23.22Z"/><path class="cls-1" d="M168.48,230.36v14.48c0,3.75-1.88,5.57-6.22,5.57s-6.24-1.85-6.24-5.6V230.39l.19-.22H158l.22.22v14.42c0,2.58,1.51,3.56,4,3.56s4-1.07,4-3.56V230.39l.19-.22h1.79Z"/><path class="cls-1" d="M171.31,249.85V230.36l.22-.19h11.29l.19.19v1.8l-.22.22h-9.27v6.1h8.65l.2.2v1.79l-.2.23h-8.65V248h9.27l.22.25v1.71l-.19.22H171.59Z"/><path class="cls-1" d="M197.12,248.17v1.74l-.19.22H185.81l-.2-.22V230.39l.2-.22h1.88a.9.9,0,0,0,.14.22V248h9.1Z"/><path class="cls-1" d="M201.6,250.13V232.41h-4.93l-.19-.2v-1.82l.19-.22H208.8l.19.19v1.77l-.28.28h-4.87v17.5l-.22.22Z"/></g></svg>
