<svg xmlns="http://www.w3.org/2000/svg" width="92.24mm" height="97.23mm" viewBox="0 0 261.47 275.6"><defs><style>.cls-1{fill:#fff;}.cls-2{fill:none;stroke:#8cd2ce;stroke-miterlimit:10;stroke-width:4px;}.cls-3{fill:#8cd2ce;}</style></defs><title>geo-billetter</title><g id="Layer_1" data-name="Layer 1"><rect class="cls-1" x="-0.33" y="1.08" width="261.38" height="274.98"/><path class="cls-2" d="M215.13,111.54,203,94.55C173.88,97,186.82,71.9,186.82,71.9L171.45,51.68,63.86,131.76l11.32,19.42s32.36-4.85,17,23.46l12.14,17.8Z"/><line class="cls-2" x1="143.17" y1="72.73" x2="148.85" y2="81.37"/><line class="cls-2" x1="152.88" y1="85.67" x2="158.56" y2="94.31"/><line class="cls-2" x1="162.6" y1="99.97" x2="168.28" y2="108.62"/><line class="cls-2" x1="172.29" y1="113.41" x2="177.97" y2="122.06"/><line class="cls-2" x1="181.2" y1="125.63" x2="186.88" y2="134.28"/><path class="cls-2" d="M67.16,138.46,48.86,125.4,114.13,8.23l22.32,12.14s-1.52,28.18,24.05,14L178,46.85l-4.35,7.69"/><line class="cls-2" x1="96.98" y1="39.03" x2="105.7" y2="44.58"/><line class="cls-2" x1="111.14" y1="46.85" x2="119.87" y2="52.4"/><line class="cls-2" x1="125.88" y1="55.9" x2="134.6" y2="61.46"/><line class="cls-2" x1="140.23" y1="64.19" x2="148.95" y2="69.74"/><rect class="cls-3" x="55.57" y="206.98" width="205.57" height="68.78"/><path class="cls-1" d="M111.16,240.66a13.1,13.1,0,0,1,.48,4.09c0,3.52-.9,5.29-5.38,5.29H99.54l-.2-.23V230.33l.25-.26h6.22c4.37,0,5.54,1.15,5.54,5.58a10.05,10.05,0,0,1-.36,2.63l-1.9,1.15v.47Zm-9.6-2h4.64c1.77,0,2.89-.39,2.89-3.08v-.28c0-2.94-1-3-2.77-3h-4.76Zm7.89,5.4c0-2.77-.64-3.22-2.3-3.22h-5.59v7h4.61c2.44,0,3.28-.4,3.28-3.14Z"/><path class="cls-1" d="M117.85,249.81l-.2.23h-1.79l-.22-.23V230.3l.22-.23h1.79l.2.23Z"/><path class="cls-1" d="M133.11,248.08v1.73l-.2.23H121.8l-.2-.23V230.3l.2-.23h1.87a1,1,0,0,0,.15.23v17.55h9.09Z"/><path class="cls-1" d="M146.61,248.08v1.73l-.2.23H135.3l-.2-.23V230.3l.2-.23h1.87a1,1,0,0,0,.14.23v17.55h9.1Z"/><path class="cls-1" d="M148.79,249.76V230.27l.22-.2H160.3l.19.2v1.79l-.22.23H151v6.1h8.65l.2.2v1.79l-.2.22H151v7.25h9.27l.22.26v1.7l-.19.23H149.07Z"/><path class="cls-1" d="M167.27,250V232.31h-4.93l-.19-.19V230.3l.19-.23h12.13l.19.2V232l-.28.28h-4.87v17.5l-.22.23Z"/><path class="cls-1" d="M180.93,250V232.31H176l-.2-.19V230.3l.2-.23h12.12l.19.2V232l-.27.28h-4.88v17.5L183,250Z"/><path class="cls-1" d="M190.34,249.76V230.27l.23-.2h11.28l.2.2v1.79l-.23.23h-9.27v6.1h8.66l.19.2v1.79l-.19.22h-8.66v7.25h9.27l.23.26v1.7l-.2.23H190.62Z"/><path class="cls-1" d="M218,250h-1.91l-5-8.65-2-.06-1.23-.73v9.21l-.25.23h-1.71l-.25-.23V230.27l.19-.2h6.58c4.18,0,5.16,2.38,5.16,5v1.54c0,1.14-.48,4.7-4,4.7l4.59,7.9v.61Zm-5.85-10.59c2.35,0,3.19-.7,3.19-2.85v-1.43c0-2.21-.9-2.88-3-2.88h-4.51v7.16Z"/></g></svg>
