<svg xmlns="http://www.w3.org/2000/svg" width="92.24mm" height="97.23mm" viewBox="0 0 261.47 275.6"><defs><style>.cls-1{fill:#fff;}.cls-2{fill:#776b5f;}.cls-3,.cls-4{fill:#fda428;}.cls-4{stroke:#fcfcfc;stroke-miterlimit:10;}</style></defs><title>gymnasium-dark</title><g id="Layer_3" data-name="Layer 3"><rect class="cls-1" x="0.04" width="261.38" height="274.98"/></g><g id="Layer_1" data-name="Layer 1"><rect class="cls-2" x="56.3" y="207.21" width="205.57" height="68.78"/><path class="cls-1" d="M102.44,241.22l1.12-1.31h1.15c0,2.88,0,9.1,0,10.13l-.25.26-2,0v-1l-3.81,1.17c-5.15,0-6-2.43-6-5.68V235.4c0-1.74.81-5.26,6.1-5.26,4.84,0,6,1.65,6,4.76l-.23.25h-1.76l-.25-.25c-.17-2.24-1.21-2.58-3.81-2.58-2,0-3.92.36-3.92,3.14v9.35c0,2.77,1.12,3.44,3.92,3.44l3.75-.08Z"/><path class="cls-1" d="M114,240.5v-.28l4.76-9.94h1.62l.23.22v.92c-1.82,3.76-3.36,7.37-5.18,11.09l-.37,0V250l-.25.25h-2v-7.7l-.39,0-5.49-11.17v-.84l.23-.22h1.71l5,9.94v.28Z"/><path class="cls-1" d="M138.31,230.5V250l-.23.23h-1.81l-.2-.2V233.92l-.42,1.28c-1.32,2.72-2.88,5.86-4.17,8.6h-1.91l-4.14-8.6-.48-1.34v16.21l-.22.2H123l-.25-.23V230.53l.2-.23h2.57l5,10.36,5-10.36h2.6Z"/><path class="cls-1" d="M154.13,230.53V250l-.2.26-2.46,0-7.51-15-.42-1.29v16.07l-.19.23h-1.79l-.23-.23V230.56l.23-.23h2.38l7.53,15,.48,1.43V230.53l.22-.2h1.76Z"/><path class="cls-1" d="M170.93,250v.25h-2.24l-1.26-5.6h-7.76l-1.23,5.6H156.2V250l4.54-19.74h5.54C167.76,236.88,169.39,243.46,170.93,250Zm-4.09-7.54-2.16-10.08h-2.32l-2.21,10.08Z"/><path class="cls-1" d="M185.18,245.23c0,3.58-1.65,5.4-6.27,5.4-4.43,0-6-1.87-6.11-4.93l.23-.19h1.79l.2.19c.11,2,1.43,2.72,3.86,2.72,3.28,0,4.12-.81,4.12-3.25a2.72,2.72,0,0,0-1.71-2.85c-1.74-.9-3.44-1.68-5.55-2.72-1.51-.76-2.6-1.82-2.6-4.51,0-2.94,1.43-5,5.8-5s5.88,1.21,6,4.76l-.22.23h-1.83l-.22-.26c0-2-.73-2.57-3.72-2.57s-3.62,1-3.62,2.71a2.77,2.77,0,0,0,1.74,2.86c1.46.67,3.61,1.62,5,2.3C184.17,241.06,185.18,242.06,185.18,245.23Z"/><path class="cls-1" d="M190.86,250l-.19.23h-1.79l-.23-.23V230.53l.23-.23h1.79l.19.23Z"/><path class="cls-1" d="M207.24,230.5V245c0,3.75-1.87,5.57-6.21,5.57s-6.25-1.85-6.25-5.6V230.53l.2-.23h1.79l.23.23V245c0,2.57,1.51,3.55,4,3.55s4-1.06,4-3.55V230.53l.2-.23H207Z"/><path class="cls-1" d="M225.67,230.5V250l-.23.23h-1.81l-.2-.2V233.92L223,235.2c-1.32,2.72-2.88,5.86-4.17,8.6h-1.91l-4.14-8.6-.48-1.34v16.21l-.22.2h-1.77l-.25-.23V230.53l.2-.23h2.57l5,10.36,5-10.36h2.6Z"/><circle class="cls-3" cx="103.53" cy="37.76" r="22.17"/><path class="cls-3" d="M112.57,152.43s0,0,0,0L97.7,127.18l.12,0c7.3-3.65,6-39.25,6-40a0,0,0,0,1,0,0c9.86-27.8-16.57-27.24-17.06-27.22h0C61,67.31,72.87,127.16,72.87,127.16l.15.1-7.23,19.47,0,0c-.45.45-12.62,12.52-21,15.59C36.29,165.47,41.68,183.9,53,176S70.6,168,80,155.26c5.66-7.72,5.92-14.6,5.75-17,.1.47.25,1.11.48,2,0,0,0,0,0,0l9.63,15.85v0l2.55,27.74s0,0,0,0c13.48,17.11,16.38-2.52,16.43-2.85v0Z"/><path class="cls-4" d="M81.87,69.31c-7,13.24,11.64,42,30.35,46.5,14.75,3.58,12.59-6.13,11-10.41a3.4,3.4,0,0,0-2.41-2.14c-6.07-1.35-11.09-8-16.79-13-5.22-4.53-7.91-17.93-8.63-22a3.46,3.46,0,0,0-1.36-2.17C91.64,64.33,86,61.48,81.87,69.31Z"/><path class="cls-3" d="M85.64,60.3,80,63.74H71.73s-7.12,36.13-6.64,36.45,5.28-.56,5.6,0-.46,3.3-.46,3.3-5.46.42-5.78,0,.65,4.85-4.44,3.3-20.9-3.3-20.9-3.3-4-1.5-2.83-6.31,7.91-39.4,22-42.23,14.22,5.11,14.22,5.11c.89-.2,14.21.58,14.21.58"/><circle class="cls-3" cx="190.64" cy="36.16" r="20.87"/><path class="cls-3" d="M217.64,183.58l-2.14-26.93a.06.06,0,0,0,0,0l-14-23.73h0c-7.83-.39-15.66-.45-23.5-.45l.08.44.15.09-6.81,18.33,0,0c-.42.42-11.88,11.79-19.74,14.67-8,2.93-2.94,20.28,7.74,12.81s16.55-7.47,25.36-19.48c5.33-7.27,5.57-13.75,5.41-16,.09.44.23,1,.46,1.86v0l9.05,14.92s0,0,0,0l2.39,26.11s0,0,0,0c12.69,16.1,15.42-2.38,15.47-2.69Z"/><path class="cls-3" d="M186.11,62.06l-5.35,3.24H173s-6.7,34-6.25,34.31,5-.53,5.27,0-.43,3.11-.43,3.11-5.14.4-5.44,0,.61,4.57-4.18,3.11-19.68-3.11-19.68-3.11-3.72-1.41-2.65-5.94S147.09,59.69,160.39,57s13.38,4.81,13.38,4.81c.84-.19,13.38.54,13.38.54"/><path class="cls-3" d="M215.5,141.3c-25.86-28.52-14.59-64.83-14.59-64.83s.14-15.17-13.68-15.3c-18.12-.17-15.86,35.27-15.5,44s-8.48,43.26-8.48,43.26S218.67,144.79,215.5,141.3Z"/><path class="cls-4" d="M184.16,72.26c-6.76,12.84,11.3,40.71,29.45,45.11,14.31,3.47,12.22-6,10.69-10.1A3.26,3.26,0,0,0,222,105.2c-5.88-1.32-10.75-7.77-16.28-12.59-5.07-4.4-7.68-17.39-8.38-21.38A3.31,3.31,0,0,0,196,69.12C193.65,67.42,188.16,64.66,184.16,72.26Z"/><path class="cls-3" d="M172.18,22.39c-1.63,2-4,5.27-3.79,7.25a1.49,1.49,0,0,1-.52,1.24c-1.18,1.08-3.41,3.33-3,4.71.53,1.85-2.18,17.24-4.5,16.94,0,0-6,9.81-15.41,8.77a1.61,1.61,0,0,1-1-2.7c3.34-3.5,9.49-10.6,7.52-13.63a1.75,1.75,0,0,1-.28-.68c-.33-2.49-2-16.53,1.69-19.44,3.85-3.05,5.36-9.93,18.59-5A1.61,1.61,0,0,1,172.18,22.39Z"/></g></svg>
