<svg xmlns="http://www.w3.org/2000/svg" width="92.24mm" height="97.23mm" viewBox="0 0 261.47 275.6"><defs><style>.cls-1{fill:#fff;}.cls-2{fill:none;stroke:#3d728b;stroke-miterlimit:10;stroke-width:4px;}.cls-3{fill:#3d728b;}</style></defs><title>koldkrig-aktuelt</title><g id="Layer_1" data-name="Layer 1"><rect class="cls-1" x="0.25" y="-0.04" width="261.38" height="274.98"/><polygon class="cls-2" points="98.19 27.91 153.42 27.91 132.94 157.39 116.81 157.39 98.19 27.91"/><circle class="cls-2" cx="125.22" cy="177.2" r="8.58"/><rect class="cls-3" x="55.7" y="206.86" width="205.57" height="68.78"/><path class="cls-1" d="M125.14,249.67v.25H122.9l-1.26-5.6h-7.75l-1.23,5.6h-2.24v-.22L115,230h5.55C122,236.54,123.6,243.12,125.14,249.67Zm-4.08-7.53-2.16-10.08h-2.32l-2.22,10.08Z"/><path class="cls-1" d="M133,240v.42l6.64,8.43v.9l-.2.22h-1.68c-2.43-2.83-4.48-5.6-6.77-8.45h-1.82v8.23l-.2.22H127.1l-.19-.22V230.18l.22-.22H129l.2.22v9.13h1.54l6.52-9.35h1.65a1.09,1.09,0,0,0,.17.22V231Z"/><path class="cls-1" d="M146.28,249.92V232.2h-4.92l-.2-.2v-1.82l.2-.22h12.12l.2.19v1.77l-.28.28h-4.88v17.5l-.22.22Z"/><path class="cls-1" d="M168.12,230.15v14.48c0,3.75-1.87,5.57-6.21,5.57s-6.25-1.85-6.25-5.6V230.18l.2-.22h1.79l.23.22V244.6c0,2.58,1.51,3.56,4,3.56s4-1.07,4-3.56V230.18l.2-.22h1.79Z"/><path class="cls-1" d="M171,249.64V230.15l.23-.19h11.28l.2.19V232l-.23.22h-9.27v6.1h8.66l.19.2v1.79l-.19.23h-8.66v7.25h9.27l.23.25v1.71l-.2.22H171.23Z"/><path class="cls-1" d="M196.77,248v1.74l-.2.22H185.46l-.2-.22V230.18l.2-.22h1.87a.9.9,0,0,0,.14.22v17.56h9.1Z"/><path class="cls-1" d="M201.25,249.92V232.2h-4.93l-.2-.2v-1.82l.2-.22h12.12l.2.19v1.77l-.28.28h-4.87v17.5l-.23.22Z"/></g></svg>
