<svg xmlns="http://www.w3.org/2000/svg" width="92.24mm" height="97.23mm" viewBox="0 0 261.47 275.6"><defs><style>.cls-1{fill:#fff;}.cls-2{fill:none;stroke:#3d728b;stroke-miterlimit:10;stroke-width:4px;}.cls-3{fill:#3d728b;}</style></defs><title>koldkrig-åbning</title><g id="Layer_1" data-name="Layer 1"><rect class="cls-1" x="-0.17" y="0.06" width="261.38" height="274.98"/><circle class="cls-2" cx="130.96" cy="103.87" r="75.12"/><polyline class="cls-2" points="126.59 55.98 126.59 108.13 178.75 108.13"/><rect class="cls-3" x="55.85" y="206.76" width="205.57" height="68.78"/><path class="cls-1" d="M91.17,250v.26H89l-1.26-5.6H79.58l-1.23,5.6H76.17V250l4.53-19.74h5.82C88,236.83,89.63,243.41,91.17,250Zm-4-7.53L85,232.3H82.27l-2.21,10.13Zm-6.24-13s-.2-.7-.2-.81a3,3,0,1,1,6,0,5.37,5.37,0,0,1-.31.81H85.07v-.67c0-1.26-.59-1.46-1.4-1.46s-1.32.2-1.32,1.46a3.86,3.86,0,0,0,0,.67Z"/><path class="cls-1" d="M104.67,240.84a13.15,13.15,0,0,1,.47,4.08c0,3.53-.89,5.3-5.37,5.3H93.05l-.2-.23V230.5l.25-.25h6.22c4.37,0,5.54,1.15,5.54,5.57a10.57,10.57,0,0,1-.36,2.64l-1.9,1.14v.48Zm-9.61-2h4.65c1.77,0,2.89-.39,2.89-3.08v-.28c0-2.94-1-3-2.78-3H95.06Zm7.9,5.4c0-2.77-.64-3.22-2.3-3.22h-5.6v7h4.62c2.44,0,3.28-.39,3.28-3.13Z"/><path class="cls-1" d="M121.13,230.48V250l-.19.25-2.47,0-7.5-15-.42-1.29V250l-.2.22h-1.79l-.22-.22V230.5l.22-.22h2.38l7.53,15,.48,1.43V230.48l.22-.2h1.77Z"/><path class="cls-1" d="M127.29,250l-.19.23h-1.8l-.22-.23V230.48l.22-.23h1.8l.19.23Z"/><path class="cls-1" d="M144.06,230.48V250l-.19.25-2.47,0-7.5-15-.42-1.29V250l-.2.22h-1.79l-.22-.22V230.5l.22-.22h2.38l7.53,15,.48,1.43V230.48l.22-.2h1.77Z"/><path class="cls-1" d="M157,241.17l1.12-1.31h1.15c0,2.88,0,9.1,0,10.13l-.25.25-2.05,0v-1l-3.81,1.18c-5.15,0-6-2.44-6-5.68v-9.41c0-1.74.82-5.27,6.11-5.27,4.84,0,6,1.66,6.05,4.76l-.23.26h-1.76l-.25-.26c-.17-2.24-1.21-2.57-3.81-2.57-2,0-3.92.36-3.92,3.13v9.36c0,2.77,1.12,3.44,3.92,3.44l3.75-.08Z"/><path class="cls-1" d="M174.47,245.18c0,3.58-1.65,5.4-6.27,5.4-4.43,0-6-1.88-6.1-4.93l.22-.19h1.79l.2.19c.11,2,1.43,2.72,3.86,2.72,3.28,0,4.12-.81,4.12-3.25a2.74,2.74,0,0,0-1.71-2.86c-1.74-.89-3.45-1.68-5.55-2.71-1.51-.76-2.6-1.82-2.6-4.51,0-2.94,1.43-5,5.8-5s5.88,1.2,6,4.76L174,235h-1.82l-.23-.25c0-2-.73-2.57-3.72-2.57s-3.62,1-3.62,2.71a2.77,2.77,0,0,0,1.74,2.86c1.46.67,3.61,1.62,5,2.29C173.46,241,174.47,242,174.47,245.18Z"/><path class="cls-1" d="M181.08,250.22V232.49h-4.93l-.2-.19v-1.82l.2-.23h12.12l.2.2v1.76l-.28.28h-4.87V250l-.22.23Z"/><path class="cls-1" d="M193.54,250l-.2.23h-1.79l-.22-.23V230.48l.22-.23h1.79l.2.23Z"/><path class="cls-1" d="M210.14,235.54v9.33c0,1.73-.87,5.35-5.26,5.35h-6.67A2.49,2.49,0,0,1,198,250V230.45l.28-.23h6.5A5.06,5.06,0,0,1,210.14,235.54Zm-2.18.09c0-2.66-1.79-3.19-3-3.19H200.2V248H205c1.17,0,2.94-.53,2.94-3.19Z"/><path class="cls-1" d="M213,249.94V230.45l.22-.2h11.29l.19.2v1.79l-.22.22h-9.27v6.11h8.65l.2.19v1.8l-.2.22h-8.65V248h9.27l.22.25V250l-.19.23H213.28Z"/><path class="cls-1" d="M240.63,250.22h-1.9l-5-8.66-2-.05-1.23-.73V250l-.25.23h-1.71l-.25-.23V230.45l.19-.2h6.58c4.17,0,5.15,2.38,5.15,5v1.54c0,1.15-.47,4.71-4,4.71l4.59,7.89V250Zm-5.85-10.59c2.35,0,3.19-.7,3.19-2.85v-1.43c0-2.21-.89-2.89-3-2.89H230.5v7.17Z"/></g></svg>
