<svg xmlns="http://www.w3.org/2000/svg" width="92.24mm" height="97.23mm" viewBox="0 0 261.47 275.6"><defs><style>.cls-1{fill:#fff;}.cls-2{fill:none;stroke:#3d728b;stroke-miterlimit:10;stroke-width:4px;}.cls-3{fill:#3d728b;}</style></defs><title>koldkrig-findvej</title><g id="Layer_1" data-name="Layer 1"><rect class="cls-1" x="-0.46" y="-0.44" width="261.38" height="274.98"/><path class="cls-2" d="M130.23,18.52s47.46-1.3,51,46.32-51,122-51,122"/><path class="cls-2" d="M130.76,18.52S83.3,17.22,79.81,64.84s50.95,122,50.95,122"/><ellipse class="cls-2" cx="130.76" cy="74.32" rx="19" ry="17.75"/><rect class="cls-3" x="56.04" y="206.77" width="205.57" height="68.78"/><path class="cls-1" d="M109.49,249.83V230.06l.22-.2H121l.2.2v1.79l-.22.23H111.7v6.1h8.65l.2.2v1.79l-.2.22H111.7v9.21l-.23.23Z"/><path class="cls-1" d="M126.71,249.6l-.2.23h-1.79l-.23-.23V230.09l.23-.23h1.79l.2.23Z"/><path class="cls-1" d="M143.48,230.09V249.6l-.2.26-2.46,0-7.51-15-.42-1.29v16.07l-.19.23h-1.79l-.23-.23V230.12l.23-.23h2.38l7.53,15,.47,1.43V230.09l.23-.2h1.76Z"/><path class="cls-1" d="M159.24,235.16v9.32c0,1.74-.87,5.35-5.26,5.35h-6.67s-.19-.2-.22-.23V230.06l.28-.22h6.49A5.06,5.06,0,0,1,159.24,235.16Zm-2.18.08c0-2.66-1.79-3.19-3-3.19H149.3v15.59h4.82c1.17,0,2.94-.53,2.94-3.19Z"/><path class="cls-1" d="M182.2,230.09v.75l-5.26,19h-4.62c-1.71-6.16-3.56-12.66-5.27-18.82v-.89l.25-.26H169c1.56,5.55,3.47,11.93,5,17.45v.33h1.23v-.33l5.07-17.45H182Z"/><path class="cls-1" d="M183.94,249.55V230.06l.22-.2h11.28l.2.2v1.79l-.22.23h-9.27v6.1h8.65l.2.2v1.79l-.2.22h-8.65v7.25h9.27l.22.26v1.7l-.2.23H184.22Z"/><path class="cls-1" d="M208.8,230.09V245c0,3.36-1.32,5.07-5.54,5.07-4.4,0-5.49-1.12-5.52-4.87l.17-.2h1.87l.17.17c0,2.46.59,2.69,3.33,2.69,1.46,0,3.34-.25,3.34-2.66V232.08h-7.17a1.79,1.79,0,0,1-.23-.26v-1.73l.23-.23h9.16Z"/></g></svg>
