<svg xmlns="http://www.w3.org/2000/svg" width="92.24mm" height="97.23mm" viewBox="0 0 261.47 275.6"><defs><style>.cls-1{fill:#fff;}.cls-2{fill:none;stroke:#3d728b;stroke-miterlimit:10;stroke-width:4px;}.cls-3{fill:#3d728b;}</style></defs><title>koldkrig-billetter</title><g id="Layer_1" data-name="Layer 1"><rect class="cls-1" x="-0.44" y="-0.13" width="261.38" height="274.98"/><path class="cls-2" d="M215,110.33l-12.14-17c-29.12,2.43-16.18-22.65-16.18-22.65L171.34,50.47,63.75,130.55,75.08,150s32.35-4.85,17,23.46l12.14,17.8Z"/><line class="cls-2" x1="143.06" y1="71.52" x2="148.74" y2="80.16"/><line class="cls-2" x1="152.77" y1="84.46" x2="158.45" y2="93.1"/><line class="cls-2" x1="162.49" y1="98.76" x2="168.17" y2="107.41"/><line class="cls-2" x1="172.19" y1="112.2" x2="177.87" y2="120.85"/><line class="cls-2" x1="181.09" y1="124.42" x2="186.77" y2="133.07"/><path class="cls-2" d="M67.05,137.25,48.76,124.19,114,7l22.31,12.14s-1.52,28.18,24,14l17.48,12.46-4.35,7.69"/><line class="cls-2" x1="96.87" y1="37.82" x2="105.6" y2="43.37"/><line class="cls-2" x1="111.03" y1="45.64" x2="119.76" y2="51.19"/><line class="cls-2" x1="125.77" y1="54.69" x2="134.5" y2="60.25"/><line class="cls-2" x1="140.12" y1="62.98" x2="148.85" y2="68.53"/><rect class="cls-3" x="55.46" y="206.77" width="205.57" height="68.78"/><path class="cls-1" d="M111.05,240.45a13.1,13.1,0,0,1,.48,4.09c0,3.52-.9,5.29-5.38,5.29H99.43l-.19-.23V230.12l.25-.26h6.21c4.37,0,5.55,1.15,5.55,5.58a10.06,10.06,0,0,1-.37,2.63l-1.9,1.15v.47Zm-9.6-2h4.65c1.76,0,2.88-.39,2.88-3.08v-.28c0-2.94-1-3-2.77-3h-4.76Zm7.89,5.4c0-2.77-.64-3.22-2.29-3.22h-5.6v7h4.62c2.43,0,3.27-.4,3.27-3.14Z"/><path class="cls-1" d="M117.74,249.6l-.19.23h-1.79l-.23-.23V230.09l.23-.23h1.79l.19.23Z"/><path class="cls-1" d="M133,247.87v1.73l-.19.23H121.69l-.19-.23V230.09l.19-.23h1.88a1,1,0,0,0,.14.23v17.55h9.1Z"/><path class="cls-1" d="M146.5,247.87v1.73l-.2.23H135.19l-.2-.23V230.09l.2-.23h1.87a1.42,1.42,0,0,0,.14.23v17.55h9.1Z"/><path class="cls-1" d="M148.68,249.55V230.06l.23-.2h11.28l.2.2v1.79l-.23.23H150.9v6.1h8.65l.19.2v1.79l-.19.22H150.9v7.25h9.26l.23.26v1.7l-.2.23H149Z"/><path class="cls-1" d="M167.16,249.83V232.1h-4.93l-.19-.19v-1.82l.19-.23h12.13l.19.2v1.76l-.27.28H169.4v17.5l-.22.23Z"/><path class="cls-1" d="M180.83,249.83V232.1H175.9l-.2-.19v-1.82l.2-.23H188l.2.2v1.76l-.28.28h-4.87v17.5l-.23.23Z"/><path class="cls-1" d="M190.23,249.55V230.06l.23-.2h11.28l.2.2v1.79l-.23.23h-9.26v6.1h8.65l.19.2v1.79l-.19.22h-8.65v7.25h9.26l.23.26v1.7l-.2.23H190.51Z"/><path class="cls-1" d="M217.87,249.83H216l-5-8.65-2-.06-1.24-.73v9.21l-.25.23h-1.71l-.25-.23V230.06l.2-.2h6.58c4.17,0,5.15,2.38,5.15,5v1.54c0,1.14-.48,4.7-4,4.7l4.6,7.9v.61ZM212,239.24c2.35-.05,3.19-.7,3.19-2.85V235c0-2.21-.9-2.88-3-2.88h-4.51v7.16Z"/></g></svg>
