<svg xmlns="http://www.w3.org/2000/svg" width="92.24mm" height="97.23mm" viewBox="0 0 261.47 275.6"><defs><style>.cls-1{fill:#fff;}.cls-2{fill:none;stroke:#218fb4;stroke-miterlimit:10;stroke-width:4px;}.cls-3{fill:#218fb4;}</style></defs><title>stevnsklint-åbning</title><g id="Layer_1" data-name="Layer 1"><rect class="cls-1" x="1.51" y="-0.41" width="261.38" height="274.98"/><circle class="cls-2" cx="132.65" cy="103.4" r="75.12"/><polyline class="cls-2" points="128.28 55.5 128.28 107.66 180.43 107.66"/><rect class="cls-3" x="57.54" y="206.29" width="205.57" height="68.78"/><path class="cls-1" d="M86,253.22v.25H83.78l-1.26-5.59H74.37l-1.23,5.59H71v-.22l4.53-19.74h5.82C82.8,240.09,84.42,246.67,86,253.22Zm-4-7.53-2.16-10.14H77.06l-2.21,10.14Zm-6.24-13s-.2-.7-.2-.81a3,3,0,1,1,6,0,5.37,5.37,0,0,1-.31.81H79.86V232c0-1.26-.59-1.46-1.4-1.46s-1.32.2-1.32,1.46a3.86,3.86,0,0,0,0,.67Z"/><path class="cls-1" d="M99.46,244.1a13.15,13.15,0,0,1,.47,4.08c0,3.53-.89,5.29-5.37,5.29H87.84l-.2-.22V233.76l.25-.25h6.22c4.37,0,5.54,1.15,5.54,5.57a10.13,10.13,0,0,1-.36,2.64l-1.9,1.14v.48Zm-9.61-2H94.5c1.77,0,2.89-.39,2.89-3.08v-.28c0-2.94-1-3-2.78-3H89.85Zm7.9,5.4c0-2.77-.64-3.22-2.3-3.22h-5.6v7h4.63c2.43,0,3.27-.39,3.27-3.13Z"/><path class="cls-1" d="M115.92,233.73v19.52l-.19.25-2.47,0-7.5-15-.42-1.29v16.07l-.2.22h-1.79l-.22-.22V233.76l.22-.22h2.38l7.53,15,.48,1.43V233.73l.22-.19h1.77Z"/><path class="cls-1" d="M122.08,253.25l-.19.22h-1.8l-.22-.22V233.73l.22-.22h1.8l.19.22Z"/><path class="cls-1" d="M138.85,233.73v19.52l-.19.25-2.47,0-7.5-15-.42-1.29v16.07l-.2.22h-1.79l-.22-.22V233.76l.22-.22h2.38l7.53,15,.48,1.43V233.73l.22-.19h1.77Z"/><path class="cls-1" d="M151.76,244.43l1.12-1.32H154c0,2.89,0,9.11,0,10.14l-.25.25-2.05,0v-.95L148,253.7c-5.15,0-6-2.44-6-5.69v-9.4c0-1.74.81-5.27,6.1-5.27,4.84,0,6,1.66,6.05,4.76l-.23.25h-1.76l-.25-.25c-.17-2.24-1.21-2.57-3.81-2.57-2,0-3.92.36-3.92,3.13V248c0,2.78,1.12,3.45,3.92,3.45l3.75-.08Z"/><path class="cls-1" d="M169.26,248.43c0,3.59-1.65,5.41-6.27,5.41-4.42,0-6-1.88-6.1-4.93l.22-.19h1.79l.2.19c.11,2,1.43,2.72,3.86,2.72,3.28,0,4.12-.82,4.12-3.25a2.74,2.74,0,0,0-1.71-2.86c-1.74-.89-3.44-1.68-5.54-2.71-1.52-.76-2.61-1.82-2.61-4.51,0-2.94,1.43-5,5.8-5s5.88,1.2,6,4.76l-.22.22H167l-.23-.25c-.05-2-.73-2.57-3.72-2.57s-3.61,1-3.61,2.71a2.77,2.77,0,0,0,1.73,2.86c1.46.67,3.61,1.62,5,2.29C168.25,244.26,169.26,245.27,169.26,248.43Z"/><path class="cls-1" d="M175.87,253.47V235.75h-4.93l-.19-.2v-1.82l.19-.22h12.13l.19.2v1.76l-.28.28h-4.87v17.5l-.22.22Z"/><path class="cls-1" d="M188.33,253.25l-.2.22h-1.79l-.22-.22V233.73l.22-.22h1.79l.2.22Z"/><path class="cls-1" d="M204.93,238.8v9.33c0,1.73-.87,5.34-5.26,5.34H193s-.2-.19-.23-.22V233.71l.28-.23h6.5A5.06,5.06,0,0,1,204.93,238.8Zm-2.18.09c0-2.66-1.79-3.2-3-3.2H195v15.6h4.82c1.18,0,2.94-.53,2.94-3.19Z"/><path class="cls-1" d="M207.79,253.19V233.71l.22-.2H219.3l.19.2v1.79l-.22.22H210v6.11h8.65l.2.19v1.79l-.2.23H210v7.25h9.27l.22.25v1.71l-.19.22H208.07Z"/><path class="cls-1" d="M235.43,253.47h-1.91l-5-8.65-2,0-1.23-.73v9.21l-.25.22h-1.71l-.25-.22V233.71l.19-.2h6.58c4.17,0,5.16,2.38,5.16,5v1.54c0,1.15-.48,4.71-4,4.71l4.59,7.89v.62Zm-5.86-10.58c2.36,0,3.2-.7,3.2-2.85v-1.43c0-2.22-.9-2.89-3-2.89h-4.51v7.17Z"/></g></svg>
