<svg xmlns="http://www.w3.org/2000/svg" width="92.24mm" height="97.23mm" viewBox="0 0 261.47 275.6"><defs><style>.cls-1{fill:#fff;}.cls-2{fill:none;stroke:#218fb4;stroke-miterlimit:10;stroke-width:4px;}.cls-3{fill:#218fb4;}</style></defs><title>stevnsklint-aktuelt</title><g id="Layer_1" data-name="Layer 1"><rect class="cls-1" x="-0.96" y="0.22" width="261.38" height="274.98"/><polygon class="cls-2" points="95.98 28.17 151.21 28.17 130.73 157.65 114.6 157.65 95.98 28.17"/><circle class="cls-2" cx="123.01" cy="177.46" r="8.58"/><rect class="cls-3" x="56.49" y="207.12" width="205.57" height="68.78"/><path class="cls-1" d="M123.94,249.93v.25h-2.25l-1.25-5.6h-7.76l-1.23,5.6h-2.24V250l4.53-19.74h5.55C120.77,236.8,122.4,243.38,123.94,249.93Zm-4.09-7.53-2.16-10.08h-2.32l-2.21,10.08Z"/><path class="cls-1" d="M131.78,240.21v.42l6.63,8.43v.9l-.19.22h-1.68c-2.44-2.83-4.48-5.6-6.78-8.46h-1.82V250l-.2.22H125.9l-.2-.22V230.44l.22-.22h1.82l.2.22v9.13h1.54l6.52-9.35h1.66a1.53,1.53,0,0,0,.16.22v.84Z"/><path class="cls-1" d="M145.07,250.18V232.46h-4.92l-.2-.2v-1.82l.2-.22h12.12l.2.19v1.77l-.28.28h-4.88V250l-.22.22Z"/><path class="cls-1" d="M166.91,230.41v14.48c0,3.75-1.87,5.57-6.21,5.57s-6.25-1.85-6.25-5.6V230.44l.2-.22h1.79l.23.22v14.42c0,2.58,1.51,3.56,4,3.56s4-1.07,4-3.56V230.44l.2-.22h1.79Z"/><path class="cls-1" d="M169.74,249.9V230.41l.23-.19h11.28l.2.19v1.8l-.23.22H172v6.1h8.65l.19.2v1.79l-.19.23H172V248h9.26l.23.25V250l-.2.22H170Z"/><path class="cls-1" d="M195.56,248.22V250l-.2.22H184.25l-.2-.22V230.44l.2-.22h1.87a.9.9,0,0,0,.14.22V248h9.1Z"/><path class="cls-1" d="M200,250.18V232.46h-4.93l-.2-.2v-1.82l.2-.22h12.12l.2.19v1.77l-.28.28h-4.87V250l-.23.22Z"/></g></svg>
