<svg xmlns="http://www.w3.org/2000/svg" width="92.24mm" height="97.23mm" viewBox="0 0 261.47 275.6"><defs><style>.cls-1{fill:#fff;}.cls-2{fill:none;stroke:#8bb342;stroke-miterlimit:10;stroke-width:4px;}.cls-3{fill:#8bb342;}</style></defs><title>stevnsnatur-aktuelt</title><g id="Layer_1" data-name="Layer 1"><rect class="cls-1" x="-0.96" y="0.17" width="261.38" height="274.98"/><polygon class="cls-2" points="95.98 28.12 151.21 28.12 130.73 157.6 114.6 157.6 95.98 28.12"/><circle class="cls-2" cx="123.01" cy="177.41" r="8.58"/><rect class="cls-3" x="56.49" y="207.07" width="205.57" height="68.78"/><path class="cls-1" d="M123.94,249.88v.25h-2.25l-1.25-5.6h-7.76l-1.23,5.6h-2.24v-.22l4.53-19.74h5.55C120.77,236.75,122.4,243.33,123.94,249.88Zm-4.09-7.53-2.16-10.08h-2.32l-2.21,10.08Z"/><path class="cls-1" d="M131.78,240.16v.42l6.63,8.43v.9l-.19.22h-1.68c-2.44-2.83-4.48-5.6-6.78-8.45h-1.82v8.23l-.2.22H125.9l-.2-.22V230.39l.22-.22h1.82l.2.22v9.13h1.54l6.52-9.35h1.66a1.53,1.53,0,0,0,.16.22v.84Z"/><path class="cls-1" d="M145.07,250.13V232.41h-4.92l-.2-.2v-1.82l.2-.22h12.12l.2.19v1.77l-.28.28h-4.88v17.5l-.22.22Z"/><path class="cls-1" d="M166.91,230.36v14.48c0,3.75-1.87,5.57-6.21,5.57s-6.25-1.85-6.25-5.6V230.39l.2-.22h1.79l.23.22v14.42c0,2.58,1.51,3.56,4,3.56s4-1.07,4-3.56V230.39l.2-.22h1.79Z"/><path class="cls-1" d="M169.74,249.85V230.36l.23-.19h11.28l.2.19v1.8l-.23.22H172v6.1h8.65l.19.2v1.79l-.19.23H172V248h9.26l.23.25v1.71l-.2.22H170Z"/><path class="cls-1" d="M195.56,248.17v1.74l-.2.22H184.25l-.2-.22V230.39l.2-.22h1.87a.9.9,0,0,0,.14.22V248h9.1Z"/><path class="cls-1" d="M200,250.13V232.41h-4.93l-.2-.2v-1.82l.2-.22h12.12l.2.19v1.77l-.28.28h-4.87v17.5l-.23.22Z"/></g></svg>
