<svg xmlns="http://www.w3.org/2000/svg" width="92.24mm" height="97.23mm" viewBox="0 0 261.47 275.6"><defs><style>.cls-1{fill:#fff;}.cls-2{fill:none;stroke:#8bb342;stroke-miterlimit:10;stroke-width:4px;}.cls-3{fill:#8bb342;}</style></defs><title>stevnsnatur-findvej</title><g id="Layer_1" data-name="Layer 1"><rect class="cls-1" x="0.33" y="-0.23" width="261.38" height="274.98"/><path class="cls-2" d="M131,18.73s47.47-1.3,51,46.32-51,122-51,122"/><path class="cls-2" d="M131.55,18.73s-47.46-1.3-51,46.32,51,122,51,122"/><ellipse class="cls-2" cx="131.55" cy="74.53" rx="19" ry="17.75"/><rect class="cls-3" x="56.83" y="206.98" width="205.57" height="68.78"/><path class="cls-1" d="M110.28,250V230.27l.22-.2h11.28l.2.2v1.79l-.22.23h-9.27v6.1h8.65l.2.2v1.79l-.2.22h-8.65v9.21l-.22.23Z"/><path class="cls-1" d="M127.5,249.81l-.2.23h-1.79l-.23-.23V230.3l.23-.23h1.79l.2.23Z"/><path class="cls-1" d="M144.27,230.3v19.51l-.2.26-2.46,0-7.51-15-.42-1.29v16.07l-.19.23H131.7l-.23-.23V230.33l.23-.23h2.38l7.53,15,.47,1.43V230.3l.23-.2h1.76Z"/><path class="cls-1" d="M160,235.37v9.32c0,1.74-.87,5.35-5.26,5.35H148.1a2.49,2.49,0,0,1-.22-.23V230.27l.28-.22h6.5A5.05,5.05,0,0,1,160,235.37Zm-2.18.08c0-2.66-1.79-3.19-3-3.19h-4.79v15.59h4.82c1.17,0,2.94-.53,2.94-3.19Z"/><path class="cls-1" d="M183,230.3v.75l-5.26,19h-4.62c-1.71-6.16-3.56-12.66-5.27-18.82v-.89l.26-.26h1.65c1.56,5.55,3.47,11.93,5,17.45v.33H176v-.33l5.07-17.45h1.71Z"/><path class="cls-1" d="M184.73,249.76V230.27l.22-.2h11.29l.19.2v1.79l-.22.23h-9.27v6.1h8.65l.2.2v1.79l-.2.22h-8.65v7.25h9.27l.22.26v1.7l-.19.23H185Z"/><path class="cls-1" d="M209.59,230.3v14.92c0,3.36-1.31,5.07-5.54,5.07-4.4,0-5.49-1.12-5.52-4.87l.17-.2h1.88l.16.17c0,2.46.59,2.69,3.34,2.69,1.45,0,3.33-.25,3.33-2.66V232.29h-7.17A1.69,1.69,0,0,1,200,232V230.3l.22-.23h9.16Z"/></g></svg>
