<svg xmlns="http://www.w3.org/2000/svg" width="92.24mm" height="97.23mm" viewBox="0 0 261.47 275.6"><defs><style>.cls-1{fill:#fff;}.cls-2{fill:none;stroke:#218fb4;stroke-miterlimit:10;stroke-width:4px;}.cls-3{fill:#218fb4;}</style></defs><title>stevnsklint-billetter</title><g id="Layer_1" data-name="Layer 1"><rect class="cls-1" x="-0.65" y="1.13" width="261.38" height="274.98"/><path class="cls-2" d="M214.82,111.59l-12.14-17C173.56,97,186.5,72,186.5,72L171.13,51.73,63.54,131.81l11.33,19.42s32.36-4.85,17,23.46L104,192.49Z"/><line class="cls-2" x1="142.85" y1="72.78" x2="148.53" y2="81.42"/><line class="cls-2" x1="152.56" y1="85.72" x2="158.24" y2="94.36"/><line class="cls-2" x1="162.29" y1="100.02" x2="167.97" y2="108.67"/><line class="cls-2" x1="171.98" y1="113.46" x2="177.66" y2="122.11"/><line class="cls-2" x1="180.88" y1="125.68" x2="186.56" y2="134.33"/><path class="cls-2" d="M66.84,138.51,48.55,125.45,113.82,8.28l22.31,12.14s-1.51,28.18,24.05,14L177.66,46.9l-4.35,7.69"/><line class="cls-2" x1="96.66" y1="39.08" x2="105.39" y2="44.63"/><line class="cls-2" x1="110.82" y1="46.9" x2="119.55" y2="52.45"/><line class="cls-2" x1="125.56" y1="55.95" x2="134.29" y2="61.51"/><line class="cls-2" x1="139.91" y1="64.24" x2="148.64" y2="69.79"/><rect class="cls-3" x="55.25" y="207.03" width="205.57" height="68.78"/><path class="cls-1" d="M110.84,240.71a13.1,13.1,0,0,1,.48,4.09c0,3.52-.9,5.29-5.38,5.29H99.22l-.19-.23V230.38l.25-.26h6.21c4.37,0,5.55,1.15,5.55,5.58a10.06,10.06,0,0,1-.37,2.63l-1.9,1.15V240Zm-9.6-2h4.65c1.76,0,2.88-.39,2.88-3.08v-.28c0-2.94-1-3-2.77-3h-4.76Zm7.9,5.4c0-2.77-.65-3.22-2.3-3.22h-5.6v7h4.62c2.43,0,3.28-.4,3.28-3.14Z"/><path class="cls-1" d="M117.53,249.86l-.19.23h-1.79l-.23-.23V230.35l.23-.23h1.79l.19.23Z"/><path class="cls-1" d="M132.79,248.13v1.73l-.19.23H121.48l-.19-.23V230.35l.19-.23h1.88a1,1,0,0,0,.14.23V247.9h9.1Z"/><path class="cls-1" d="M146.29,248.13v1.73l-.2.23H135l-.2-.23V230.35l.2-.23h1.88a1.34,1.34,0,0,0,.13.23V247.9h9.1Z"/><path class="cls-1" d="M148.47,249.81V230.32l.23-.2H160l.2.2v1.79l-.23.23h-9.26v6.1h8.65l.19.2v1.79l-.19.22h-8.65v7.25H160l.23.26v1.7l-.2.23H148.75Z"/><path class="cls-1" d="M167,250.09V232.36H162l-.2-.19v-1.82l.2-.23h12.12l.2.2v1.76l-.28.28h-4.88v17.5l-.22.23Z"/><path class="cls-1" d="M180.62,250.09V232.36h-4.93l-.2-.19v-1.82l.2-.23h12.12l.2.2v1.76l-.28.28h-4.87v17.5l-.23.23Z"/><path class="cls-1" d="M190,249.81V230.32l.22-.2h11.28l.2.2v1.79l-.22.23h-9.27v6.1h8.65l.2.2v1.79l-.2.22h-8.65v7.25h9.27l.22.26v1.7l-.2.23H190.31Z"/><path class="cls-1" d="M217.66,250.09h-1.9l-5-8.65-2-.06-1.23-.73v9.21l-.26.23h-1.7l-.26-.23V230.32l.2-.2h6.58c4.17,0,5.15,2.38,5.15,5v1.54c0,1.14-.47,4.7-4,4.7l4.59,7.9v.61Zm-5.85-10.59c2.35-.05,3.19-.7,3.19-2.85v-1.43c0-2.21-.89-2.88-3-2.88h-4.5v7.16Z"/></g></svg>
