<svg xmlns="http://www.w3.org/2000/svg" width="92.24mm" height="97.23mm" viewBox="0 0 261.47 275.6"><defs><style>.cls-1{fill:#fff;}.cls-2{fill:none;stroke:#8bb342;stroke-miterlimit:10;stroke-width:4px;}.cls-3{fill:#8bb342;}</style></defs><title>stevnsnatur-åbning</title><g id="Layer_1" data-name="Layer 1"><rect class="cls-1" x="1.51" y="-0.46" width="261.38" height="274.98"/><circle class="cls-2" cx="132.65" cy="103.35" r="75.12"/><polyline class="cls-2" points="128.28 55.45 128.28 107.61 180.43 107.61"/><rect class="cls-3" x="57.54" y="206.24" width="205.57" height="68.78"/><path class="cls-1" d="M86,253.17v.26H83.78l-1.26-5.6H74.37l-1.23,5.6H71v-.23l4.53-19.74h5.82C82.8,240,84.42,246.62,86,253.17Zm-4-7.53-2.16-10.13H77.06l-2.21,10.13Zm-6.24-13s-.2-.7-.2-.81a3,3,0,1,1,6,0,5.37,5.37,0,0,1-.31.81H79.86V232c0-1.26-.59-1.46-1.4-1.46s-1.32.2-1.32,1.46a3.86,3.86,0,0,0,0,.67Z"/><path class="cls-1" d="M99.46,244.05a13.15,13.15,0,0,1,.47,4.08c0,3.53-.89,5.3-5.37,5.3H87.84l-.2-.23V233.71l.25-.25h6.22c4.37,0,5.54,1.15,5.54,5.57a10.13,10.13,0,0,1-.36,2.64l-1.9,1.14v.48Zm-9.61-2H94.5c1.77,0,2.89-.39,2.89-3.08v-.28c0-2.94-1-3-2.78-3H89.85Zm7.9,5.4c0-2.77-.64-3.22-2.3-3.22h-5.6v7h4.63c2.43,0,3.27-.39,3.27-3.13Z"/><path class="cls-1" d="M115.92,233.69V253.2l-.19.25-2.47,0-7.5-15-.42-1.29v16.07l-.2.22h-1.79l-.22-.22V233.71l.22-.22h2.38l7.53,15,.48,1.43V233.69l.22-.2h1.77Z"/><path class="cls-1" d="M122.08,253.2l-.19.23h-1.8l-.22-.23V233.69l.22-.23h1.8l.19.23Z"/><path class="cls-1" d="M138.85,233.69V253.2l-.19.25-2.47,0-7.5-15-.42-1.29v16.07l-.2.22h-1.79l-.22-.22V233.71l.22-.22h2.38l7.53,15,.48,1.43V233.69l.22-.2h1.77Z"/><path class="cls-1" d="M151.76,244.38l1.12-1.31H154c0,2.88,0,9.1,0,10.13l-.25.25-2.05,0v-1L148,253.65c-5.15,0-6-2.44-6-5.68v-9.41c0-1.74.81-5.27,6.1-5.27,4.84,0,6,1.66,6.05,4.76l-.23.26h-1.76l-.25-.26c-.17-2.24-1.21-2.57-3.81-2.57-2,0-3.92.36-3.92,3.13V248c0,2.77,1.12,3.44,3.92,3.44l3.75-.08Z"/><path class="cls-1" d="M169.26,248.39c0,3.58-1.65,5.4-6.27,5.4-4.42,0-6-1.88-6.1-4.93l.22-.19h1.79l.2.19c.11,2,1.43,2.72,3.86,2.72,3.28,0,4.12-.81,4.12-3.25a2.74,2.74,0,0,0-1.71-2.86c-1.74-.89-3.44-1.68-5.54-2.71-1.52-.76-2.61-1.82-2.61-4.51,0-2.94,1.43-5,5.8-5s5.88,1.2,6,4.76l-.22.22H167l-.23-.25c-.05-2-.73-2.57-3.72-2.57s-3.61,1-3.61,2.71a2.77,2.77,0,0,0,1.73,2.86c1.46.67,3.61,1.62,5,2.29C168.25,244.21,169.26,245.22,169.26,248.39Z"/><path class="cls-1" d="M175.87,253.43V235.7h-4.93l-.19-.19v-1.82l.19-.23h12.13l.19.2v1.76l-.28.28h-4.87v17.5l-.22.23Z"/><path class="cls-1" d="M188.33,253.2l-.2.23h-1.79l-.22-.23V233.69l.22-.23h1.79l.2.23Z"/><path class="cls-1" d="M204.93,238.75v9.33c0,1.73-.87,5.35-5.26,5.35H193s-.2-.2-.23-.23V233.66l.28-.23h6.5A5.06,5.06,0,0,1,204.93,238.75Zm-2.18.09c0-2.66-1.79-3.19-3-3.19H195v15.59h4.82c1.18,0,2.94-.53,2.94-3.19Z"/><path class="cls-1" d="M207.79,253.15V233.66l.22-.2H219.3l.19.2v1.79l-.22.22H210v6.11h8.65l.2.19v1.8l-.2.22H210v7.25h9.27l.22.25v1.71l-.19.23H208.07Z"/><path class="cls-1" d="M235.43,253.43h-1.91l-5-8.66-2-.05-1.23-.73v9.21l-.25.23h-1.71l-.25-.23V233.66l.19-.2h6.58c4.17,0,5.16,2.38,5.16,5V240c0,1.15-.48,4.71-4,4.71l4.59,7.89v.62Zm-5.86-10.59c2.36-.05,3.2-.7,3.2-2.85v-1.43c0-2.21-.9-2.89-3-2.89h-4.51v7.17Z"/></g></svg>
