<svg xmlns="http://www.w3.org/2000/svg" width="92.24mm" height="97.23mm" viewBox="0 0 261.47 275.6"><defs><style>.cls-1{fill:#fff;}.cls-2{fill:none;stroke:#fda428;stroke-miterlimit:10;stroke-width:3px;}.cls-3{fill:#776b5f;}</style></defs><title>telefonnummer-dark</title><g id="Layer_3" data-name="Layer 3"><rect class="cls-1" x="0.04" width="261.38" height="274.98"/></g><g id="Layer_2" data-name="Layer 2"><path class="cls-2" d="M60.47,47.22s69.63-29.64,146.09,0c0,0,17.58,32.89,4.66,47s-44.51-4.46-37.56-25.7-87.86-20.07-79.52,0-18.31,39-38.71,26.15S60.47,47.22,60.47,47.22Z"/><path class="cls-2" d="M132.73,90.63h14.52V78.44h19.38V95.06s29.41,45.76,29.88,49.73,0,34.78,0,34.78H132.73"/><path class="cls-2" d="M134.5,90.63H120V78.44H100.61V95.06s-29.42,45.76-29.88,49.73,0,34.78,0,34.78H134.5"/></g><g id="Layer_1" data-name="Layer 1"><rect class="cls-3" x="56.18" y="207.21" width="205.57" height="68.78"/><path class="cls-1" d="M64.56,250.27V232.54H59.64l-.2-.19v-1.82l.2-.23H71.76l.2.2v1.76l-.28.28H66.8V250l-.22.23Z"/><path class="cls-1" d="M74,250V230.5l.23-.2H85.48l.19.2v1.79l-.22.23H76.18v6.1h8.66l.19.2v1.79l-.19.22H76.18v7.25h9.27l.22.26V250l-.19.23H74.25Z"/><path class="cls-1" d="M99.79,248.31V250l-.2.23H88.48l-.2-.23V230.53l.2-.23h1.87a1,1,0,0,0,.14.23v17.55h9.1Z"/><path class="cls-1" d="M102,250V230.5l.23-.2h11.28l.19.2v1.79l-.22.23h-9.27v6.1h8.66l.19.2v1.79l-.19.22h-8.66v7.25h9.27l.22.26V250l-.19.23H102.25Z"/><path class="cls-1" d="M116.53,250.27V230.5l.22-.2H128l.19.2v1.79l-.22.23h-9.27v6.1h8.65l.2.2v1.79l-.2.22h-8.65V250l-.22.23Z"/><path class="cls-1" d="M137.14,250.66c-4.45,0-6.22-2.58-6.22-5.29V235c0-2.5,1.68-5.27,6.25-5.27,4.37,0,6.21,2.61,6.21,5.29v10.36C143.38,248.08,141.62,250.66,137.14,250.66Zm4-15.57c0-2.55-1.76-3.25-4-3.25-2.5,0-4.06.79-4.06,3.25v10.28c0,2.57,2.66,3.22,3.86,3.22h.39c1.15,0,3.78-.53,3.78-3.19Z"/><path class="cls-1" d="M158.78,230.53V250l-.19.26-2.47,0-7.5-15L148.2,234v16.07l-.2.23h-1.79l-.22-.23V230.56l.22-.23h2.38l7.53,15,.48,1.43V230.53l.22-.2h1.77Z"/><path class="cls-1" d="M174.71,230.53V250l-.19.26-2.47,0-7.5-15-.42-1.29v16.07l-.2.23h-1.79l-.22-.23V230.56l.22-.23h2.38l7.53,15,.48,1.43V230.53l.22-.2h1.77Z"/><path class="cls-1" d="M190.25,230.5V245c0,3.75-1.87,5.57-6.21,5.57s-6.25-1.85-6.25-5.6V230.53l.2-.23h1.79l.23.23V245c0,2.57,1.51,3.55,4,3.55s4-1.06,4-3.55V230.53l.2-.23H190Z"/><path class="cls-1" d="M208.68,230.5V250l-.23.23h-1.82l-.19-.2V233.92L206,235.2c-1.32,2.72-2.89,5.86-4.17,8.6h-1.91l-4.14-8.6-.48-1.34v16.21l-.22.2h-1.77l-.25-.23V230.53l.2-.23h2.57l5,10.36,5-10.36h2.6Z"/><path class="cls-1" d="M227.27,230.5V250l-.22.23h-1.82l-.2-.2V233.92l-.42,1.28c-1.32,2.72-2.88,5.86-4.17,8.6h-1.91l-4.14-8.6-.48-1.34v16.21l-.22.2h-1.76l-.26-.23V230.53l.2-.23h2.58l5,10.36,5-10.36h2.6Z"/><path class="cls-1" d="M230.27,250V230.5l.22-.2h11.28l.2.2v1.79l-.22.23h-9.27v6.1h8.65l.2.2v1.79l-.2.22h-8.65v7.25h9.27l.22.26V250l-.2.23H230.55Z"/><path class="cls-1" d="M257.9,250.27H256l-5-8.65-2-.06-1.24-.73V250l-.25.23H245.8l-.25-.23V230.5l.2-.2h6.58c4.17,0,5.15,2.38,5.15,5v1.54c0,1.14-.48,4.7-4,4.7l4.6,7.9v.61Zm-5.85-10.59c2.35-.05,3.19-.7,3.19-2.85V235.4c0-2.21-.9-2.88-3-2.88h-4.51v7.16Z"/></g></svg>
