<svg xmlns="http://www.w3.org/2000/svg" width="92.24mm" height="97.23mm" viewBox="0 0 261.47 275.6"><defs><style>.cls-1{fill:#fff;}.cls-2{fill:none;stroke:#fda428;stroke-miterlimit:10;stroke-width:3px;}.cls-3{fill:#776b5f;}</style></defs><title>åbningstider-dark</title><g id="Layer_3" data-name="Layer 3"><rect class="cls-1" x="-0.4" y="0.31" width="261.38" height="274.98"/></g><g id="Layer_2" data-name="Layer 2"><circle class="cls-2" cx="130.73" cy="104.12" r="75.12"/><polyline class="cls-2" points="126.36 56.22 126.36 108.38 178.52 108.38"/></g><g id="Layer_1" data-name="Layer 1"><rect class="cls-3" x="56.62" y="207.01" width="205.57" height="68.78"/><path class="cls-1" d="M91.94,250.21v.25H89.76l-1.26-5.6H80.35l-1.23,5.6H76.94v-.22l4.53-19.74H87.3C88.78,237.08,90.4,243.66,91.94,250.21Zm-4-7.53-2.16-10.14H83l-2.21,10.14Zm-6.24-13s-.2-.7-.2-.81a3,3,0,1,1,6,0,6.33,6.33,0,0,1-.31.81H85.84V229c0-1.26-.59-1.46-1.4-1.46s-1.32.2-1.32,1.46a3.92,3.92,0,0,0,0,.67Z"/><path class="cls-1" d="M105.44,241.08a13.22,13.22,0,0,1,.47,4.09c0,3.53-.89,5.29-5.37,5.29H93.82l-.2-.22V230.75l.26-.25h6.21c4.37,0,5.54,1.15,5.54,5.57a10.43,10.43,0,0,1-.36,2.63l-1.9,1.15v.48Zm-9.61-2h4.65c1.77,0,2.89-.4,2.89-3.09v-.27c0-2.94-1-3-2.78-3H95.83Zm7.9,5.4c0-2.77-.64-3.22-2.3-3.22h-5.6v7h4.63c2.43,0,3.27-.39,3.27-3.13Z"/><path class="cls-1" d="M121.9,230.72v19.52l-.19.25-2.47,0-7.5-15-.42-1.28v16.07l-.2.22h-1.79l-.22-.22V230.75l.22-.22h2.38l7.53,15,.48,1.42V230.72l.22-.19h1.77Z"/><path class="cls-1" d="M128.06,250.24l-.19.22h-1.8l-.22-.22V230.72l.22-.22h1.8l.19.22Z"/><path class="cls-1" d="M144.83,230.72v19.52l-.19.25-2.47,0-7.5-15-.42-1.28v16.07l-.2.22h-1.79l-.22-.22V230.75l.22-.22h2.38l7.53,15,.48,1.42V230.72l.22-.19h1.77Z"/><path class="cls-1" d="M157.74,241.42l1.12-1.32H160c0,2.89,0,9.1,0,10.14l-.25.25-2,0v-1l-3.81,1.18c-5.15,0-6.05-2.44-6.05-5.69v-9.4c0-1.74.82-5.27,6.11-5.27,4.84,0,6,1.65,6,4.76l-.23.25h-1.76l-.25-.25c-.17-2.24-1.21-2.58-3.81-2.58-2,0-3.92.37-3.92,3.14V245c0,2.78,1.12,3.45,3.92,3.45l3.75-.09Z"/><path class="cls-1" d="M175.24,245.42c0,3.59-1.65,5.41-6.27,5.41-4.42,0-6-1.88-6.1-4.93l.22-.2h1.79l.2.2c.11,2,1.43,2.72,3.86,2.72,3.28,0,4.12-.82,4.12-3.25a2.74,2.74,0,0,0-1.71-2.86c-1.74-.89-3.45-1.68-5.55-2.71-1.51-.76-2.6-1.83-2.6-4.51,0-2.94,1.43-5,5.8-5s5.88,1.2,6,4.76l-.22.22H173l-.23-.25c-.05-2-.73-2.58-3.72-2.58s-3.62,1-3.62,2.72a2.75,2.75,0,0,0,1.74,2.85c1.46.68,3.61,1.63,5,2.3C174.23,241.25,175.24,242.26,175.24,245.42Z"/><path class="cls-1" d="M181.85,250.46V232.74h-4.93l-.2-.2v-1.82l.2-.22h12.13l.19.2v1.76l-.28.28h-4.87v17.5l-.22.22Z"/><path class="cls-1" d="M194.31,250.24l-.2.22h-1.79l-.22-.22V230.72l.22-.22h1.79l.2.22Z"/><path class="cls-1" d="M210.91,235.79v9.33c0,1.73-.86,5.34-5.26,5.34H199a2.27,2.27,0,0,1-.22-.22V230.7l.28-.23h6.5A5,5,0,0,1,210.91,235.79Zm-2.18.09c0-2.66-1.79-3.2-3-3.2H201v15.6h4.82c1.17,0,2.94-.53,2.94-3.19Z"/><path class="cls-1" d="M213.77,250.18V230.7l.22-.2h11.29l.19.2v1.79l-.22.22H216v6.1h8.65l.2.2v1.79l-.2.23H216v7.25h9.27l.22.25v1.71l-.19.22H214.05Z"/><path class="cls-1" d="M241.4,250.46h-1.9l-5-8.65-2-.05-1.23-.73v9.21l-.25.22h-1.71l-.25-.22V230.7l.19-.2h6.58c4.17,0,5.15,2.38,5.15,5v1.54c0,1.15-.47,4.71-4,4.71l4.59,7.89v.62Zm-5.85-10.58c2.35-.06,3.19-.7,3.19-2.86V235.6c0-2.22-.89-2.89-3-2.89h-4.51v7.17Z"/></g></svg>
